<svg width="658" height="123" viewBox="0 0 658 123" fill="none" xmlns="http://www.w3.org/2000/svg">
<path d="M18.1068 93.549C18.06 96.7713 15.553 99.2382 12.3842 99.1781C9.22872 99.1179 6.7351 96.5307 6.7819 93.3819C6.8287 90.1596 9.31563 87.7595 12.5446 87.8063C15.7937 87.8531 18.1536 90.2866 18.1068 93.549ZM16.8834 93.5691C16.9436 91.2025 14.9246 89.0632 12.5714 89.003C10.2315 88.9495 8.07217 91.0086 8.01868 93.3485C7.97189 95.6616 10.0577 97.8744 12.3575 97.948C14.6773 98.0215 16.8166 95.9491 16.8834 93.5691Z" fill="white" fill-opacity="0.15"/>
<path d="M59.292 64.9189C69.8882 64.9189 79.9362 64.9189 90.5057 64.9189C90.0578 70.0132 89.65 74.5257 89.2756 79.0383C89.2021 79.9007 88.9079 81.1977 89.3358 81.5654C92.3241 84.1392 91.0405 87.3148 90.7063 90.2897C89.9442 97.1422 88.9748 103.968 88.1592 110.814C87.8182 113.682 86.6349 115.226 83.4527 115.005C74.4743 114.397 65.4826 113.936 56.4975 113.441C54.2646 113.321 52.8473 112.271 52.8674 109.971C52.9343 101.528 53.0145 93.0775 53.2886 84.6406C53.3287 83.3838 54.1042 81.7325 55.0869 80.9971C57.9549 78.8445 59.0112 76.177 58.8441 72.6739C58.7371 70.1469 59.1249 67.5998 59.292 64.9189ZM60.4084 65.9886C60.0541 72.3196 59.673 78.5102 59.4123 84.7008C59.3856 85.3493 59.9471 86.1248 60.4285 86.6796C62.8218 89.4541 65.3088 92.1549 67.7088 94.9226C69.0793 96.5071 70.4097 96.8681 72.3083 95.6112C76.5668 92.79 80.9791 90.1961 85.2444 87.3883C86.0533 86.8535 86.8956 85.8039 87.0227 84.888C87.7915 79.3927 88.4333 73.8706 88.8879 68.3418C88.948 67.6131 87.6979 66.0956 87.036 66.0889C78.2916 65.9418 69.5406 65.9886 60.4084 65.9886ZM82.1959 108.026C83.5062 101.508 84.7363 95.3906 86.1268 88.478C80.8254 91.7939 76.2526 94.6552 71.9005 97.3761C75.2565 100.846 78.5457 104.249 82.1959 108.026ZM57.6073 106.689C57.8747 106.856 58.1354 107.023 58.4028 107.184C61.8391 104.075 65.282 100.959 68.6982 97.8642C64.9678 93.7527 61.5316 89.9688 57.6073 85.6501C57.6073 93.2781 57.6073 99.9834 57.6073 106.689ZM79.4348 108.634C76.373 105.292 73.271 101.909 70.062 98.4057C66.706 101.454 63.5906 104.282 59.9338 107.598C67.174 107.986 73.4649 108.32 79.4348 108.634ZM68.3506 112.545C71.5194 113.655 74.1869 113.555 75.8783 110.065C72.5423 108.48 70.2893 109.844 68.3506 112.545ZM68.8186 109.517C65.5294 108.721 63.0157 109.256 61.2575 112.378C64.5333 113.341 66.94 112.592 68.8186 109.517ZM75.5239 112.037C75.6777 112.452 75.8314 112.866 75.9785 113.281C78.5256 113.769 80.8254 113.748 81.1663 109.59C79.2878 110.406 77.4092 111.221 75.5239 112.037ZM85.0371 105.98C84.6561 106.141 84.275 106.308 83.8939 106.468C82.7508 109.129 83.7469 110.88 86.3274 111.95C86.6817 111.796 87.036 111.649 87.3904 111.496C86.6015 109.657 85.8193 107.819 85.0371 105.98ZM61.6987 110.098C61.4513 109.557 61.204 109.015 60.9499 108.474C59.1449 109.383 57.3399 110.292 55.5348 111.208C55.7755 111.703 56.0162 112.197 56.2635 112.692C58.0753 111.83 59.887 110.961 61.6987 110.098ZM86.2672 106.522C86.8555 106.294 87.4505 106.067 88.0388 105.84C87.3168 104.209 86.5881 102.577 85.8661 100.946C85.3313 101.173 84.7965 101.401 84.2616 101.635C84.9302 103.266 85.5987 104.89 86.2672 106.522ZM53.9838 106.395C57.507 104.931 55.8557 102.637 55.9627 100.458C52.4462 101.822 54.4117 104.188 53.9838 106.395Z" fill="white" fill-opacity="0.15"/>
<path d="M62.8031 77.8395C69.689 77.8395 76.5749 77.8395 83.4607 77.8395C83.4674 78.0401 83.4674 78.2406 83.4741 78.4412C76.5882 78.4412 69.7023 78.4412 62.8165 78.4412C62.8098 78.2406 62.8098 78.0401 62.8031 77.8395Z" fill="white" fill-opacity="0.15"/>
<path d="M63.8911 74.453C71.1179 74.453 78.3381 74.453 85.5649 74.453C85.5649 74.6803 85.5582 74.9077 85.5582 75.135C78.3381 75.135 71.1112 75.135 63.8911 75.135C63.8844 74.9143 63.8844 74.6803 63.8911 74.453Z" fill="white" fill-opacity="0.15"/>
<path d="M63.7887 70.6777C69.6918 71.0587 75.5949 71.4331 81.4981 71.8142C81.478 72.1952 81.4513 72.5696 81.4312 72.9507C75.5348 72.5897 69.645 72.2287 63.7486 71.8676C63.7619 71.4665 63.7753 71.0721 63.7887 70.6777Z" fill="white" fill-opacity="0.15"/>
<path d="M81.0215 82.1115C75.7468 82.1115 70.4654 82.1115 65.1906 82.1115C65.1906 81.8909 65.184 81.6703 65.184 81.443C70.4787 81.443 75.7735 81.443 81.0683 81.443C81.0482 81.6703 81.0348 81.8909 81.0215 82.1115Z" fill="white" fill-opacity="0.15"/>
<path d="M76.6206 88.728C73.2645 88.728 69.9152 88.728 66.5592 88.728C66.5725 88.5541 66.5926 88.3803 66.606 88.1998C69.962 88.1998 73.3113 88.1998 76.6674 88.1998C76.6607 88.3803 76.6406 88.5541 76.6206 88.728Z" fill="white" fill-opacity="0.15"/>
<path d="M70.4035 7.12898C82.6643 6.21977 94.9319 5.31057 107.193 4.40137C107.44 4.78243 107.687 5.17018 107.941 5.55124C101.143 12.0159 103.616 20.7403 101.644 28.9298C100.247 28.1877 99.0768 27.5125 97.8534 26.9309C96.3157 26.2022 95.0723 24.0228 92.933 25.9214C92.7458 26.0885 91.8834 25.7075 91.4889 25.3999C84.3356 19.8177 77.1957 14.2087 70.0625 8.60643C70.1762 8.1184 70.2898 7.62369 70.4035 7.12898ZM92.5987 24.8584C94.4305 22.2512 96.055 19.938 97.8734 17.3575C90.2054 14.9174 82.9718 12.6109 75.7316 10.3045C75.5578 10.592 75.3907 10.8728 75.2169 11.1602C80.9128 15.6461 86.6153 20.1453 92.5987 24.8584ZM105.548 5.82534C96.3291 6.39359 87.4777 6.9351 78.6264 7.47661C78.6264 7.77077 78.6264 8.0716 78.6264 8.36576C84.9708 9.12788 91.3953 9.50226 97.6394 10.7792C101.831 11.6349 103.823 10.0772 105.548 5.82534ZM100.942 12.3703C94.0294 11.5145 87.3106 10.6856 80.5919 9.85658C85.3852 11.9959 90.3725 13.4199 95.206 15.2316C98.0539 16.3012 99.8255 15.9135 100.942 12.3703ZM100.427 26.9777C99.772 23.9158 99.284 21.6428 98.6422 18.6545C97.2182 20.6467 96.2355 22.0172 95.1191 23.5682C96.8907 24.7114 98.328 25.6339 100.427 26.9777Z" fill="white" fill-opacity="0.15"/>
<path d="M32.7647 64.8819C31.675 57.889 38.5074 57.7954 42.2311 54.5798C39.7977 52.1196 37.9726 49.499 39.6974 46.0226C41.4757 42.4259 44.6646 40.9685 48.4284 41.0086C51.2697 41.042 54.1979 41.3028 56.9121 42.085C60.9968 43.2616 62.8888 46.1095 62.6414 49.6327C62.3874 53.2962 59.6531 56.7057 55.7355 57.0801C52.6268 57.3743 49.3243 56.9598 46.2891 56.1642C44.3838 55.6695 43.0267 55.5091 41.4623 56.7325C40.6066 57.401 39.5102 57.762 38.5007 58.2166C35.5191 59.5604 33.0455 61.2919 32.7647 64.8819ZM50.3003 41.7039C46.8841 42.1384 43.7353 42.6064 41.5559 45.4878C39.7308 47.9012 40.0517 51.2104 42.3247 52.5408C42.9933 52.9285 44.2835 52.4672 44.7582 52.9352C48.4485 56.6188 54.2647 57.4411 58.2759 54.6868C62.7885 51.5848 62.5211 46.0427 57.5806 43.7897C55.3076 42.7468 52.7338 42.3791 50.3003 41.7039Z" fill="white" fill-opacity="0.15"/>
<path d="M63.7509 30.5621C63.771 33.1895 61.859 35.1349 59.2049 35.2018C56.397 35.2753 54.3045 33.3165 54.2511 30.5755C54.1976 27.7811 56.1631 25.7955 58.9976 25.7755C61.8255 25.7621 63.7375 27.6808 63.7509 30.5621ZM54.9397 29.7398C54.9397 30.2346 54.9397 30.7293 54.9397 31.224C56.3302 32.1399 57.6405 33.6173 59.138 33.8379C61.2974 34.1588 62.8551 32.307 62.4406 30.3348C62.1732 29.0446 60.308 27.2663 59.0912 27.2195C57.7475 27.1727 56.3302 28.8306 54.9397 29.7398Z" fill="white" fill-opacity="0.15"/>
<path d="M19.5793 44.1756C21.2573 41.4814 22.8083 39.0079 24.6602 36.0329C22.3537 35.4112 20.5754 35.2106 19.0645 34.4685C15.6283 32.7905 11.7842 31.4267 9.05663 28.9063C2.81923 23.1302 4.97859 14.0315 13.021 11.3574C19.9069 9.07102 26.6791 9.67938 32.7561 13.9312C39.9495 18.9653 39.2341 29.4345 31.4056 33.4657C29.3399 34.5287 28.2502 35.7321 27.7087 38.0519C26.8329 41.8224 23.6172 44.0085 19.5793 44.1756ZM25.6228 34.9031C24.9276 37.1627 24.2791 39.2619 23.6373 41.3678C24.9944 40.238 26.2914 38.941 26.5588 37.4636C27.0468 34.7293 28.4908 33.439 30.9109 32.2557C37.1617 29.1871 38.3584 21.1581 33.5583 16.2444C28.3037 10.8627 16.8049 9.73286 10.6344 13.9914C7.30508 16.2912 6.08166 19.6806 7.27834 23.5982C8.70231 28.2712 12.2322 30.8585 16.5709 32.4028C19.3654 33.3922 22.2936 34.0006 25.6228 34.9031Z" fill="white" fill-opacity="0.15"/>
<path d="M0.000128295 43.9211C0.0201842 40.5249 2.54055 37.931 5.84978 37.9177C9.05204 37.9043 11.8131 40.6252 11.8733 43.8542C11.9401 47.3239 9.26598 49.978 5.7495 49.9178C2.31325 49.8576 -0.0199277 47.4309 0.000128295 43.9211ZM6.2509 39.2213C3.83082 38.9873 1.43747 41.0397 1.22354 43.5333C0.99624 46.1874 2.76116 48.3802 5.35507 48.6543C8.00245 48.9417 10.4693 46.8827 10.6498 44.2553C10.8103 41.8352 8.73115 39.4553 6.2509 39.2213Z" fill="white" fill-opacity="0.15"/>
<path d="M20.6926 27.5305C18.921 26.8887 16.8351 24.4018 13.6329 26.1533C13.5393 24.6826 13.439 23.0447 13.3387 21.4068C13.1114 21.3466 12.8908 21.2864 12.6635 21.2263C12.0418 22.7104 11.4133 24.2012 10.4172 26.5678C10.4172 22.4564 10.4172 19.3209 10.4172 16.1855C10.678 16.1722 10.9387 16.1521 11.2061 16.1387C11.293 17.3354 11.3799 18.5321 11.4468 19.4145C12.8106 20.0831 14.0607 20.6914 15.2841 21.2864C16.3739 20.912 17.8513 20.404 19.9171 19.6886C20.0173 19.4012 20.385 18.3048 20.7594 17.2084C20.9266 17.2218 21.1004 17.2351 21.2675 17.2485C21.0803 20.5711 20.8931 23.887 20.6926 27.5305Z" fill="white" fill-opacity="0.15"/>
<path d="M30.0161 25.2825C28.0707 27.2012 23.879 27.7093 22.4082 25.8441C20.182 23.0162 22.2946 20.3621 23.6316 17.7482C23.3709 20.068 23.1102 22.3945 22.8495 24.7143C23.1503 24.8346 23.4511 24.9549 23.752 25.0686C24.6478 22.9761 25.1826 19.9877 28.1777 21.3114C29.1671 21.746 29.3676 23.9722 29.9225 25.3828L30.0161 25.2825Z" fill="white" fill-opacity="0.15"/>
<path d="M146.612 25.5572C144.74 33.6464 143.116 40.6793 141.478 47.7123C140.067 53.7692 138.529 59.7993 137.259 65.8897C136.638 68.8847 135 69.7605 132.252 69.1855C126.061 67.8886 119.864 66.5916 113.687 65.2345C109.809 64.3855 108.773 62.6673 109.876 58.6695C112.51 49.143 115.245 39.6431 117.939 30.1299C118.935 26.6068 120.091 23.117 120.9 19.5537C121.522 16.8128 123.147 16.0573 125.533 16.7192C131.523 18.3704 137.533 19.995 143.39 22.0407C144.854 22.5488 145.79 24.6145 146.612 25.5572ZM145.302 25.6307C144.553 24.8953 143.724 23.4245 142.534 23.0301C136.958 21.1783 131.289 19.6139 125.647 17.976C123.695 17.4078 122.572 18.0629 121.997 20.1554C118.42 33.1183 114.763 46.061 111.086 59.0038C110.284 61.8317 111.039 63.4629 114.068 64.0512C119.737 65.161 125.426 66.244 131.015 67.688C134.244 68.517 135.655 67.7482 136.33 64.4323C137.68 57.7871 139.378 51.2154 140.916 44.6103C142.32 38.5334 143.717 32.4698 145.302 25.6307Z" fill="white" fill-opacity="0.15"/>
<path d="M126.593 59.2361C125.825 60.9743 125.169 62.786 124.133 64.3437C124 64.5375 120.837 63.4077 120.824 62.8595C120.791 61.235 121.64 59.5971 122.201 57.7519C121.513 57.5514 119.915 57.1369 118.344 56.6221C114.734 55.4455 113.624 53.6672 114.607 50.0705C117.154 40.7378 119.801 31.4385 122.442 22.1326C123.197 19.4651 125.263 18.6161 127.65 19.3247C132.329 20.7086 136.969 22.2863 141.495 24.1114C142.398 24.4791 143.414 26.4713 143.193 27.4407C141.034 36.9807 138.714 46.4939 136.24 55.9603C135.345 59.3965 133.386 60.299 129.883 59.557C128.499 59.2628 127.128 58.9352 125.751 58.6277C126.039 58.8283 126.313 59.0288 126.593 59.2361ZM139.322 39.0397C140.218 35.1623 141.187 31.5121 141.823 27.8084C141.963 26.9861 141.174 25.4151 140.432 25.1209C136.22 23.4162 131.915 21.9253 127.596 20.508C125.584 19.8462 124.18 20.6484 123.578 22.8011C120.998 31.9934 118.384 41.179 115.77 50.3647C115.001 53.0588 116.104 54.6901 118.685 55.3786C122.649 56.4416 126.627 57.4578 130.618 58.4472C132.65 58.9486 134.275 58.1932 134.843 56.2076C136.361 50.9195 137.684 45.5713 139.075 40.2899C136.347 39.7083 134.034 39.2069 131.714 38.7122C131.781 38.3913 131.855 38.0771 131.922 37.7562C134.262 38.1573 136.608 38.5651 139.322 39.0397Z" fill="white" fill-opacity="0.15"/>
<path d="M133.753 44.1057C129.387 42.9825 125.022 41.8661 120.656 40.7429C120.75 40.3619 120.843 39.9808 120.944 39.6064C125.323 40.7162 129.701 41.8193 134.074 42.929C133.967 43.3235 133.86 43.7112 133.753 44.1057Z" fill="white" fill-opacity="0.15"/>
<path d="M126.333 23.1748C130.545 24.338 134.756 25.508 138.968 26.6712C138.861 27.0322 138.761 27.3932 138.654 27.7542C134.369 26.5977 130.083 25.4411 125.805 24.2846C125.979 23.9102 126.152 23.5425 126.333 23.1748Z" fill="white" fill-opacity="0.15"/>
<path d="M123.1 48.6318C126.657 49.3806 130.213 50.1293 133.77 50.8781C133.69 51.2592 133.609 51.6469 133.529 52.028C129.973 51.2725 126.416 50.5171 122.859 49.7617C122.94 49.3873 123.02 49.0062 123.1 48.6318Z" fill="white" fill-opacity="0.15"/>
<path d="M137.842 37.4463C134.546 36.7443 131.257 36.0357 127.961 35.3337C128.034 34.966 128.115 34.605 128.188 34.2373C131.564 34.9125 134.94 35.5944 138.316 36.2696C138.156 36.6641 137.996 37.0585 137.842 37.4463Z" fill="white" fill-opacity="0.15"/>
<path d="M132.488 122.757C129.483 118.279 125.925 115.921 121.684 115.008C112.964 113.132 109.341 102.788 115.458 96.318C117.809 93.8307 121.145 91.7892 124.415 90.7469C131.46 88.504 138.447 93.6151 137.657 100.911C136.88 108.021 134.407 114.951 132.488 122.757ZM131.956 119.034C133.617 113.082 135.356 108.215 136.291 103.205C137.829 95.0025 130.892 89.4026 123.201 92.5368C120.843 93.5001 118.542 95.0744 116.752 96.9003C111.059 102.73 113.848 111.91 121.842 113.542C124.257 114.038 126.903 113.369 129.677 113.218C130.238 114.627 130.878 116.266 131.956 119.034Z" fill="white" fill-opacity="0.15"/>
<path d="M118.534 105.202C122.157 103.743 125.787 102.284 129.41 100.824C129.568 101.22 129.733 101.622 129.892 102.018C126.261 103.47 122.631 104.922 119.001 106.367C118.85 105.979 118.692 105.59 118.534 105.202Z" fill="white" fill-opacity="0.15"/>
<path d="M129.29 98.1652C125.725 99.3657 122.159 100.573 118.601 101.774C118.465 101.407 118.328 101.041 118.199 100.674C121.75 99.4232 125.301 98.1724 128.852 96.9288C128.989 97.3385 129.139 97.7483 129.29 98.1652Z" fill="white" fill-opacity="0.15"/>
<path d="M120.236 108.2C123.269 107.021 126.296 105.843 129.329 104.671C129.473 105.03 129.617 105.39 129.76 105.749C126.691 106.986 123.621 108.222 120.559 109.466C120.444 109.041 120.336 108.624 120.236 108.2Z" fill="white" fill-opacity="0.15"/>
<path d="M241.001 22.0708C240.671 36.8282 240.003 37.5668 225.403 39.492C214.669 40.9065 203.943 42.3838 193.209 43.8375C188.274 44.5054 186.427 43.3032 185.641 38.329C184.36 30.2038 183.213 22.063 182.192 13.8985C181.445 7.91067 183.087 5.60041 189.067 4.86176C200.98 3.39231 212.924 2.22932 224.861 0.956325C227.713 0.649862 230.581 0.445554 233.426 0.076227C236.412 -0.308816 238.141 0.7363 238.534 3.86379C239.304 9.93803 240.176 16.0044 241.001 22.0708ZM188.344 6.10332C189.767 16.7352 191.079 26.4949 192.431 36.5767C206.764 34.455 220.295 32.4512 234.267 30.3846C233.253 20.8057 232.271 11.5096 231.241 1.72641C216.94 3.18014 203.07 4.59459 188.344 6.10332ZM222.865 33.7635C218.079 34.2822 213.215 33.6221 211.518 39.437C219.831 39.7199 220.798 39.2641 222.865 33.7635ZM211.274 35.7595C203.141 35.9559 201.899 36.3017 200.626 41.1186C204.996 40.8672 209.624 41.4015 211.274 35.7595ZM189.468 42.5174C194.167 42.4466 198.371 42.5566 200.1 37.1189C195.943 37.5747 191.582 37.001 189.468 42.5174ZM223.281 37.889C227.642 38.6669 230.526 37.2289 231.556 32.5298C227.548 32.4277 224.083 32.9306 223.281 37.889ZM187.763 40.4978C192.486 37.6847 191.032 34.345 189.869 30.8325C184.785 33.2842 187.048 36.8596 187.763 40.4978ZM231.1 36.9696C235.147 36.8517 237.504 35.3273 238.416 32.1605C238.651 31.3511 237.543 30.1488 236.797 28.5772C234.612 31.799 233.017 34.1407 231.1 36.9696ZM184.848 22.503C189.767 20.6878 188.344 17.4582 187.614 14.2992C182.742 15.6744 184.502 19.1083 184.848 22.503ZM188.737 22.4794C183.747 24.4911 185.783 27.815 186.191 31.0368C190.883 29.2766 189.327 25.9841 188.737 22.4794ZM234.4 15.3679C234.125 18.7626 234.518 21.5915 238.958 21.8508C239.555 18.1968 238.809 15.6115 234.4 15.3679ZM233.662 8.27999C233.85 13.9613 233.992 14.1185 238.51 14.0321C238.777 10.661 237.512 8.52359 233.662 8.27999ZM184.085 14.0713C188.203 11.6511 188.227 11.5725 186.781 7.3056C183.119 8.86149 182.742 9.79659 184.085 14.0713ZM236.09 7.7928C237.347 1.94643 236.781 1.24707 231.823 2.43363C233.457 4.48457 234.77 6.13476 236.09 7.7928ZM236.286 22.173C235.854 22.5187 235.43 22.8723 234.997 23.2181C235.186 25.7169 235.249 28.3101 239.909 27.3357C238.706 25.6148 237.496 23.8939 236.286 22.173Z" fill="white" fill-opacity="0.15"/>
<path d="M226.062 16.5391C221.355 16.5627 218.495 13.9539 218.408 10.4256C218.337 7.16454 220.459 4.68141 223.39 4.59497C226.958 4.49281 231.036 8.35896 230.737 11.8086C230.447 15.0933 228.246 16.4449 226.062 16.5391ZM226.392 15.2662C227.099 14.2839 228.789 12.9402 229.071 11.345C229.488 8.97974 225.528 5.3572 223.422 6.198C221.921 6.79521 220.223 8.91688 220.09 10.4885C219.83 13.5845 222.274 14.8497 226.392 15.2662Z" fill="white" fill-opacity="0.15"/>
<path d="M217.321 14.3624C211.349 19.0772 209.746 19.5487 205.385 18.4093C209.385 17.0577 213.353 15.714 217.321 14.3624Z" fill="white" fill-opacity="0.15"/>
<path d="M203.554 15.1641C208.025 13.6553 212.096 12.2802 216.166 10.905C212.394 13.4589 208.929 17.0186 203.554 15.1641Z" fill="white" fill-opacity="0.15"/>
<path d="M202.643 10.92C207.743 9.39553 212.01 8.11467 216.277 6.84167C216.371 7.23458 216.465 7.61962 216.56 8.01252C212.088 8.71188 208.379 12.743 202.643 10.92Z" fill="white" fill-opacity="0.15"/>
<path d="M214.028 95.4175C205.18 92.2536 196.862 94.6935 188.483 97.3546C191.56 101.008 191.667 102.449 189.569 106.431C189.126 107.262 189.126 108.354 189.019 109.333C188.878 110.66 189.012 112.041 188.717 113.321C188.154 115.775 186.847 117.906 184.019 117.604C181.19 117.296 180.312 114.957 180.352 112.423C180.399 109.42 180.741 106.424 180.862 103.421C180.908 102.228 180.701 101.028 180.647 100.311C175.761 99.5532 171.27 98.8628 166.772 98.1657C164.184 97.7635 163.166 95.0019 164.768 92.7765C165.264 92.0861 166.035 91.4493 166.215 90.6851C167.831 83.8213 172.443 79.5716 178.348 76.3809C180.795 75.0604 183.241 73.7198 185.587 72.225C189.207 69.9192 191.667 66.7956 192.464 62.3984C192.686 61.1718 193.912 60.1328 194.676 59C195.588 59.858 196.788 60.5618 197.351 61.6075C198.638 64.0139 200.166 65.2941 203.136 65.7164C210 66.6951 214.108 73.9745 211.769 80.7111C210.985 82.9767 211.354 84.5854 212.319 86.6097C213.519 89.1099 214.129 91.8984 215 94.5595C214.672 94.841 214.35 95.1292 214.028 95.4175ZM187.826 72.5803C184.186 74.618 180.748 76.0994 177.852 78.2913C174.715 80.6574 171.759 83.4392 169.312 86.5025C167.368 88.9424 166.396 92.1933 168.387 95.2499C170.304 98.1925 173.408 99.0974 176.625 98.4673C183.234 97.1804 189.777 95.5247 196.493 93.983C195.213 85.7986 192.485 78.9012 187.826 72.5803ZM214.115 93.6814C208.873 81.2741 201.232 71.2263 194.784 59.677C193.215 64.0809 191.875 67.0704 194.71 71.1057C198.035 75.838 199.952 81.569 202.325 86.9382C203.109 88.7145 203.431 90.6918 203.907 92.3542C207.124 92.7698 209.966 93.1384 214.115 93.6814ZM189.495 70.7169C192.699 78.5929 195.648 85.8389 198.671 93.2725C199.576 93.1317 200.937 92.9172 202.526 92.6625C200.495 83.6403 197.204 75.7575 191.734 68.9272C190.681 69.7785 189.823 70.4555 189.495 70.7169ZM182.256 99.0237C182.035 103.877 181.632 108.207 181.76 112.524C181.8 113.844 183.308 115.118 184.146 116.411C185.259 115.325 187.243 114.3 187.33 113.14C187.685 108.106 187.484 103.032 187.484 97.6295C185.131 98.2595 183.65 98.6483 182.256 99.0237ZM200.649 66.9297C203.705 71.977 206.628 76.8099 209.738 81.9511C213.251 74.3767 208.599 66.8023 200.649 66.9297Z" fill="white" fill-opacity="0.15"/>
<path d="M185.771 88.5807C184.745 87.7965 183.304 87.1664 182.761 86.0872C182.46 85.4906 183.452 83.9154 184.229 83.1781C185.248 82.2129 186.595 81.1404 187.882 81.0264C189.256 80.9058 191.502 81.4956 191.938 82.4408C192.42 83.4864 191.69 85.6984 190.738 86.6301C189.665 87.6691 187.748 87.8635 185.771 88.5807ZM183.17 85.6582C186.213 87.4881 188.385 86.8715 190.309 85.37C190.832 84.9611 191.207 83.5132 190.899 83.0977C190.429 82.4676 189.049 81.7973 188.512 82.0654C186.736 82.9636 185.168 84.264 183.17 85.6582Z" fill="white" fill-opacity="0.15"/>
<path d="M309.734 20.4699C313.124 21.8499 315.224 22.71 317.324 23.57C316.234 25.95 315.654 28.82 313.944 30.61C311.474 33.2 308.534 34.7599 308.854 39.3999C309.124 43.2899 304.074 45.9399 300.334 44.0299C297.444 42.5499 295.504 43.3699 293.014 44.4999C290.504 45.6399 287.744 46.6199 285.024 46.8499C281.474 47.16 280.224 44.9299 280.364 41.4099C280.454 39.2099 280.304 36.6199 279.224 34.8099C274.744 27.2799 273.134 19.8299 277.854 11.7699C278.434 10.7799 277.774 9.11995 277.904 7.78995C278.124 5.52995 277.844 1.92995 279.004 1.34995C280.794 0.449951 283.644 1.51996 286.004 1.94996C287.034 2.13996 288.004 3.24995 288.954 3.18995C298.144 2.58995 303.344 7.88993 307.194 15.2699C308.264 17.3299 309.234 19.4399 309.734 20.4699ZM289.014 28.2199C292.074 26.7599 291.894 26.7899 291.214 23.4899C290.984 22.3499 291.904 20.9799 292.294 19.7099C293.314 20.3899 294.444 20.9599 295.304 21.8099C295.774 22.2699 295.794 23.2 296.014 23.92C296.474 24.13 296.944 24.3399 297.404 24.5499C298.474 22.9699 299.864 21.5099 300.504 19.7699C301.044 18.3099 300.714 16.5299 300.764 14.8999C301.824 16.2799 302.864 17.67 303.944 19.04C304.124 19.27 304.474 19.3499 304.754 19.4999C307.354 15.7099 301.964 8.53996 295.854 6.38996C289.944 9.97996 284.884 13.3299 279.554 16.1799C276.144 17.9999 276.444 20.9199 277.074 23.4599C277.824 26.4599 279.634 29.1999 281.134 31.9699C281.204 32.0999 282.804 31.4099 283.074 31.3099C282.924 28.8999 282.584 26.93 282.814 25.04C282.874 24.55 285.224 23.6699 285.654 24.0199C286.984 25.1299 287.884 26.7299 289.014 28.2199ZM315.924 24.9999C315.614 24.4099 315.304 23.8299 314.994 23.2399C312.464 23.9599 309.704 24.2299 307.454 25.4699C300.054 29.5299 292.744 33.7799 285.644 38.3399C284.094 39.3299 283.574 41.9199 282.584 43.7799C284.694 43.9299 287.324 44.9699 288.834 44.0899C297.244 39.1799 305.414 33.8599 313.554 28.5299C314.644 27.8099 315.144 26.1999 315.924 24.9999ZM280.794 34.8099C282.204 35.7599 283.324 36.9 283.684 36.7C291.934 32 300.104 27.1599 308.284 22.3399C307.944 21.7399 307.594 21.1399 307.254 20.5299C298.794 25.0899 290.334 29.6599 280.794 34.8099ZM279.524 13.3799C279.834 13.7699 280.144 14.15 280.454 14.54C284.264 11.8 288.064 9.05996 291.874 6.32996C286.004 5.38996 282.944 7.45995 279.524 13.3799ZM299.794 40.92C299.934 41.51 300.064 42.1 300.204 42.7C302.054 42.28 304.184 42.2899 305.644 41.2999C306.684 40.5999 306.814 38.5599 307.344 37.1199C307.004 36.9699 306.664 36.8099 306.324 36.6599C304.154 38.0699 301.974 39.5 299.794 40.92ZM284.974 4.45994C284.934 3.86994 284.894 3.27995 284.854 2.68995C283.224 2.68995 281.054 2.06994 280.114 2.86994C279.244 3.61994 279.674 5.88996 279.414 8.72996C282.174 6.60996 283.574 5.53994 284.974 4.45994Z" fill="white" fill-opacity="0.15"/>
<path d="M292.563 95.4177C293.382 96.2046 294.154 97.105 294.827 98.0438C294.975 98.2538 295.031 98.5118 294.983 98.7615C294.935 99.0111 294.785 99.2322 294.568 99.3765C294.351 99.5207 294.084 99.5765 293.824 99.5315C293.564 99.4866 293.334 99.3446 293.182 99.1366C291.754 97.1278 289.884 95.4467 287.705 94.2127C285.525 92.9788 283.09 92.2223 280.573 91.9971C278.055 91.7719 275.517 92.0836 273.139 92.9099C270.761 93.7362 268.601 95.0568 266.813 96.7779C266.118 97.4474 265.428 98.2593 264.801 99.1289C264.646 99.3293 264.416 99.4638 264.161 99.5042C263.905 99.5445 263.642 99.4874 263.429 99.345C263.216 99.2026 263.069 98.986 263.019 98.7411C262.969 98.4961 263.019 98.2419 263.16 98.0323C263.826 97.0984 264.575 96.2228 265.4 95.4158C269.002 91.9481 273.888 90 278.982 90C284.076 90 288.961 91.9481 292.563 95.4158V95.4177ZM288.095 99.2135C289.056 100.151 289.861 101.225 290.481 102.399C290.592 102.625 290.608 102.884 290.524 103.121C290.44 103.358 290.264 103.554 290.033 103.668C289.802 103.782 289.533 103.805 289.285 103.731C289.036 103.658 288.827 103.494 288.702 103.275C288.178 102.28 287.497 101.369 286.684 100.574C285.467 99.402 283.98 98.5245 282.343 98.0132C280.706 97.5019 278.966 97.3714 277.267 97.6323C275.567 97.8933 273.956 98.5382 272.566 99.5143C271.175 100.49 270.045 101.77 269.267 103.248C269.208 103.361 269.127 103.462 269.027 103.545C268.927 103.628 268.812 103.691 268.687 103.731C268.562 103.771 268.43 103.787 268.298 103.777C268.167 103.768 268.039 103.733 267.922 103.676C267.804 103.619 267.7 103.54 267.614 103.443C267.528 103.347 267.463 103.235 267.423 103.115C267.382 102.994 267.367 102.867 267.377 102.741C267.388 102.614 267.424 102.491 267.485 102.378C268.405 100.629 269.743 99.1151 271.389 97.96C273.034 96.8048 274.941 96.0416 276.952 95.7328C278.963 95.424 281.022 95.5784 282.959 96.1835C284.896 96.7885 286.657 97.8269 288.097 99.2135H288.095ZM284.68 104.017C285.389 104.698 285.973 105.537 286.378 106.43C286.481 106.663 286.484 106.926 286.387 107.161C286.289 107.396 286.1 107.585 285.859 107.686C285.618 107.788 285.345 107.794 285.1 107.703C284.855 107.612 284.656 107.432 284.548 107.201C284.241 106.523 283.808 105.905 283.269 105.378C282.706 104.836 282.038 104.406 281.302 104.112C280.567 103.819 279.779 103.668 278.983 103.668C278.187 103.668 277.398 103.819 276.663 104.112C275.927 104.406 275.259 104.836 274.696 105.378C274.163 105.898 273.735 106.51 273.435 107.182C273.384 107.299 273.309 107.406 273.214 107.495C273.12 107.584 273.008 107.654 272.885 107.701C272.762 107.748 272.631 107.771 272.499 107.769C272.366 107.767 272.236 107.739 272.115 107.688C271.994 107.637 271.884 107.563 271.793 107.471C271.702 107.379 271.63 107.271 271.583 107.152C271.535 107.033 271.513 106.906 271.517 106.779C271.521 106.652 271.551 106.527 271.605 106.411C272.005 105.519 272.574 104.708 273.284 104.017C274.795 102.563 276.845 101.745 278.982 101.745C281.119 101.745 283.168 102.563 284.68 104.017ZM280.835 107.736C281.076 107.968 281.267 108.244 281.397 108.547C281.528 108.85 281.595 109.174 281.595 109.502C281.595 109.83 281.528 110.155 281.397 110.458C281.267 110.761 281.076 111.037 280.835 111.268C280.594 111.5 280.308 111.684 279.993 111.81C279.679 111.935 279.341 112 279.001 112C278.66 112 278.323 111.935 278.008 111.81C277.693 111.684 277.407 111.5 277.166 111.268C276.68 110.8 276.406 110.165 276.406 109.502C276.406 108.84 276.68 108.205 277.166 107.736C277.653 107.268 278.313 107.005 279.001 107.005C279.689 107.005 280.349 107.268 280.835 107.736Z" fill="white" fill-opacity="0.15"/>
<path d="M358.107 93.549C358.06 96.7713 355.553 99.2382 352.384 99.1781C349.229 99.1179 346.735 96.5307 346.782 93.3819C346.829 90.1596 349.316 87.7595 352.545 87.8063C355.794 87.8531 358.154 90.2866 358.107 93.549ZM356.883 93.5691C356.944 91.2025 354.925 89.0632 352.571 89.003C350.232 88.9495 348.072 91.0086 348.019 93.3485C347.972 95.6616 350.058 97.8744 352.357 97.948C354.677 98.0215 356.817 95.9491 356.883 93.5691Z" fill="white" fill-opacity="0.15"/>
<path d="M399.292 64.9189C409.888 64.9189 419.936 64.9189 430.506 64.9189C430.058 70.0132 429.65 74.5257 429.276 79.0383C429.202 79.9007 428.908 81.1977 429.336 81.5654C432.324 84.1392 431.041 87.3148 430.706 90.2897C429.944 97.1422 428.975 103.968 428.159 110.814C427.818 113.682 426.635 115.226 423.453 115.005C414.474 114.397 405.483 113.936 396.498 113.441C394.265 113.321 392.847 112.271 392.867 109.971C392.934 101.528 393.014 93.0775 393.289 84.6406C393.329 83.3838 394.104 81.7325 395.087 80.9971C397.955 78.8445 399.011 76.177 398.844 72.6739C398.737 70.1469 399.125 67.5998 399.292 64.9189ZM400.408 65.9886C400.054 72.3196 399.673 78.5102 399.412 84.7008C399.386 85.3493 399.947 86.1248 400.428 86.6796C402.822 89.4541 405.309 92.1549 407.709 94.9226C409.079 96.5071 410.41 96.8681 412.308 95.6112C416.567 92.79 420.979 90.1961 425.244 87.3883C426.053 86.8535 426.896 85.8039 427.023 84.888C427.791 79.3927 428.433 73.8706 428.888 68.3418C428.948 67.6131 427.698 66.0956 427.036 66.0889C418.292 65.9418 409.541 65.9886 400.408 65.9886ZM422.196 108.026C423.506 101.508 424.736 95.3906 426.127 88.478C420.825 91.7939 416.253 94.6552 411.9 97.3761C415.257 100.846 418.546 104.249 422.196 108.026ZM397.607 106.689C397.875 106.856 398.135 107.023 398.403 107.184C401.839 104.075 405.282 100.959 408.698 97.8642C404.968 93.7527 401.532 89.9688 397.607 85.6501C397.607 93.2781 397.607 99.9834 397.607 106.689ZM419.435 108.634C416.373 105.292 413.271 101.909 410.062 98.4057C406.706 101.454 403.591 104.282 399.934 107.598C407.174 107.986 413.465 108.32 419.435 108.634ZM408.351 112.545C411.519 113.655 414.187 113.555 415.878 110.065C412.542 108.48 410.289 109.844 408.351 112.545ZM408.819 109.517C405.529 108.721 403.016 109.256 401.257 112.378C404.533 113.341 406.94 112.592 408.819 109.517ZM415.524 112.037C415.678 112.452 415.831 112.866 415.979 113.281C418.526 113.769 420.825 113.748 421.166 109.59C419.288 110.406 417.409 111.221 415.524 112.037ZM425.037 105.98C424.656 106.141 424.275 106.308 423.894 106.468C422.751 109.129 423.747 110.88 426.327 111.95C426.682 111.796 427.036 111.649 427.39 111.496C426.601 109.657 425.819 107.819 425.037 105.98ZM401.699 110.098C401.451 109.557 401.204 109.015 400.95 108.474C399.145 109.383 397.34 110.292 395.535 111.208C395.776 111.703 396.016 112.197 396.264 112.692C398.075 111.83 399.887 110.961 401.699 110.098ZM426.267 106.522C426.856 106.294 427.451 106.067 428.039 105.84C427.317 104.209 426.588 102.577 425.866 100.946C425.331 101.173 424.796 101.401 424.262 101.635C424.93 103.266 425.599 104.89 426.267 106.522ZM393.984 106.395C397.507 104.931 395.856 102.637 395.963 100.458C392.446 101.822 394.412 104.188 393.984 106.395Z" fill="white" fill-opacity="0.15"/>
<path d="M402.803 77.8395C409.689 77.8395 416.575 77.8395 423.461 77.8395C423.467 78.0401 423.467 78.2406 423.474 78.4412C416.588 78.4412 409.702 78.4412 402.816 78.4412C402.81 78.2406 402.81 78.0401 402.803 77.8395Z" fill="white" fill-opacity="0.15"/>
<path d="M403.891 74.453C411.118 74.453 418.338 74.453 425.565 74.453C425.565 74.6803 425.558 74.9077 425.558 75.135C418.338 75.135 411.111 75.135 403.891 75.135C403.884 74.9143 403.884 74.6803 403.891 74.453Z" fill="white" fill-opacity="0.15"/>
<path d="M403.789 70.6777C409.692 71.0587 415.595 71.4331 421.498 71.8142C421.478 72.1952 421.451 72.5696 421.431 72.9507C415.535 72.5897 409.645 72.2287 403.749 71.8676C403.762 71.4665 403.775 71.0721 403.789 70.6777Z" fill="white" fill-opacity="0.15"/>
<path d="M421.021 82.1115C415.747 82.1115 410.465 82.1115 405.191 82.1115C405.191 81.8909 405.184 81.6703 405.184 81.443C410.479 81.443 415.773 81.443 421.068 81.443C421.048 81.6703 421.035 81.8909 421.021 82.1115Z" fill="white" fill-opacity="0.15"/>
<path d="M416.621 88.728C413.265 88.728 409.915 88.728 406.559 88.728C406.573 88.5541 406.593 88.3803 406.606 88.1998C409.962 88.1998 413.311 88.1998 416.667 88.1998C416.661 88.3803 416.641 88.5541 416.621 88.728Z" fill="white" fill-opacity="0.15"/>
<path d="M410.403 7.12898C422.664 6.21977 434.932 5.31057 447.193 4.40137C447.44 4.78243 447.687 5.17018 447.941 5.55124C441.143 12.0159 443.616 20.7403 441.644 28.9298C440.247 28.1877 439.077 27.5125 437.853 26.9309C436.316 26.2022 435.072 24.0228 432.933 25.9214C432.746 26.0885 431.883 25.7075 431.489 25.3999C424.336 19.8177 417.196 14.2087 410.062 8.60643C410.176 8.1184 410.29 7.62369 410.403 7.12898ZM432.599 24.8584C434.43 22.2512 436.055 19.938 437.873 17.3575C430.205 14.9174 422.972 12.6109 415.732 10.3045C415.558 10.592 415.391 10.8728 415.217 11.1602C420.913 15.6461 426.615 20.1453 432.599 24.8584ZM445.548 5.82534C436.329 6.39359 427.478 6.9351 418.626 7.47661C418.626 7.77077 418.626 8.0716 418.626 8.36576C424.971 9.12788 431.395 9.50226 437.639 10.7792C441.831 11.6349 443.823 10.0772 445.548 5.82534ZM440.942 12.3703C434.029 11.5145 427.311 10.6856 420.592 9.85658C425.385 11.9959 430.372 13.4199 435.206 15.2316C438.054 16.3012 439.826 15.9135 440.942 12.3703ZM440.427 26.9777C439.772 23.9158 439.284 21.6428 438.642 18.6545C437.218 20.6467 436.236 22.0172 435.119 23.5682C436.891 24.7114 438.328 25.6339 440.427 26.9777Z" fill="white" fill-opacity="0.15"/>
<path d="M372.765 64.8819C371.675 57.889 378.507 57.7954 382.231 54.5798C379.798 52.1196 377.973 49.499 379.697 46.0226C381.476 42.4259 384.665 40.9685 388.428 41.0086C391.27 41.042 394.198 41.3028 396.912 42.085C400.997 43.2616 402.889 46.1095 402.641 49.6327C402.387 53.2962 399.653 56.7057 395.735 57.0801C392.627 57.3743 389.324 56.9598 386.289 56.1642C384.384 55.6695 383.027 55.5091 381.462 56.7325C380.607 57.401 379.51 57.762 378.501 58.2166C375.519 59.5604 373.046 61.2919 372.765 64.8819ZM390.3 41.7039C386.884 42.1384 383.735 42.6064 381.556 45.4878C379.731 47.9012 380.052 51.2104 382.325 52.5408C382.993 52.9285 384.284 52.4672 384.758 52.9352C388.448 56.6188 394.265 57.4411 398.276 54.6868C402.788 51.5848 402.521 46.0427 397.581 43.7897C395.308 42.7468 392.734 42.3791 390.3 41.7039Z" fill="white" fill-opacity="0.15"/>
<path d="M403.751 30.5621C403.771 33.1895 401.859 35.1349 399.205 35.2018C396.397 35.2753 394.305 33.3165 394.251 30.5755C394.198 27.7811 396.163 25.7955 398.998 25.7755C401.826 25.7621 403.738 27.6808 403.751 30.5621ZM394.94 29.7398C394.94 30.2346 394.94 30.7293 394.94 31.224C396.33 32.1399 397.641 33.6173 399.138 33.8379C401.297 34.1588 402.855 32.307 402.441 30.3348C402.173 29.0446 400.308 27.2663 399.091 27.2195C397.747 27.1727 396.33 28.8306 394.94 29.7398Z" fill="white" fill-opacity="0.15"/>
<path d="M359.579 44.1756C361.257 41.4814 362.808 39.0079 364.66 36.0329C362.354 35.4112 360.575 35.2106 359.065 34.4685C355.628 32.7905 351.784 31.4267 349.057 28.9063C342.819 23.1302 344.979 14.0315 353.021 11.3574C359.907 9.07102 366.679 9.67938 372.756 13.9312C379.949 18.9653 379.234 29.4345 371.406 33.4657C369.34 34.5287 368.25 35.7321 367.709 38.0519C366.833 41.8224 363.617 44.0085 359.579 44.1756ZM365.623 34.9031C364.928 37.1627 364.279 39.2619 363.637 41.3678C364.994 40.238 366.291 38.941 366.559 37.4636C367.047 34.7293 368.491 33.439 370.911 32.2557C377.162 29.1871 378.358 21.1581 373.558 16.2444C368.304 10.8627 356.805 9.73286 350.634 13.9914C347.305 16.2912 346.082 19.6806 347.278 23.5982C348.702 28.2712 352.232 30.8585 356.571 32.4028C359.365 33.3922 362.294 34.0006 365.623 34.9031Z" fill="white" fill-opacity="0.15"/>
<path d="M340 43.9211C340.02 40.5249 342.541 37.931 345.85 37.9177C349.052 37.9043 351.813 40.6252 351.873 43.8542C351.94 47.3239 349.266 49.978 345.75 49.9178C342.313 49.8576 339.98 47.4309 340 43.9211ZM346.251 39.2213C343.831 38.9873 341.437 41.0397 341.224 43.5333C340.996 46.1874 342.761 48.3802 345.355 48.6543C348.002 48.9417 350.469 46.8827 350.65 44.2553C350.81 41.8352 348.731 39.4553 346.251 39.2213Z" fill="white" fill-opacity="0.15"/>
<path d="M360.693 27.5305C358.921 26.8887 356.835 24.4018 353.633 26.1533C353.539 24.6826 353.439 23.0447 353.339 21.4068C353.111 21.3466 352.891 21.2864 352.664 21.2263C352.042 22.7104 351.413 24.2012 350.417 26.5678C350.417 22.4564 350.417 19.3209 350.417 16.1855C350.678 16.1722 350.939 16.1521 351.206 16.1387C351.293 17.3354 351.38 18.5321 351.447 19.4145C352.811 20.0831 354.061 20.6914 355.284 21.2864C356.374 20.912 357.851 20.404 359.917 19.6886C360.017 19.4012 360.385 18.3048 360.759 17.2084C360.927 17.2218 361.1 17.2351 361.268 17.2485C361.08 20.5711 360.893 23.887 360.693 27.5305Z" fill="white" fill-opacity="0.15"/>
<path d="M370.016 25.2825C368.071 27.2012 363.879 27.7093 362.408 25.8441C360.182 23.0162 362.295 20.3621 363.632 17.7482C363.371 20.068 363.11 22.3945 362.849 24.7143C363.15 24.8346 363.451 24.9549 363.752 25.0686C364.648 22.9761 365.183 19.9877 368.178 21.3114C369.167 21.746 369.368 23.9722 369.923 25.3828L370.016 25.2825Z" fill="white" fill-opacity="0.15"/>
<path d="M486.612 25.5572C484.74 33.6464 483.116 40.6793 481.478 47.7123C480.067 53.7692 478.529 59.7993 477.259 65.8897C476.638 68.8847 475 69.7605 472.252 69.1855C466.061 67.8886 459.864 66.5916 453.687 65.2345C449.809 64.3855 448.773 62.6673 449.876 58.6695C452.51 49.143 455.245 39.6431 457.939 30.1299C458.935 26.6068 460.091 23.117 460.9 19.5537C461.522 16.8128 463.147 16.0573 465.533 16.7192C471.523 18.3704 477.533 19.995 483.39 22.0407C484.854 22.5488 485.79 24.6145 486.612 25.5572ZM485.302 25.6307C484.553 24.8953 483.724 23.4245 482.534 23.0301C476.958 21.1783 471.289 19.6139 465.647 17.976C463.695 17.4078 462.572 18.0629 461.997 20.1554C458.42 33.1183 454.763 46.061 451.086 59.0038C450.284 61.8317 451.039 63.4629 454.068 64.0512C459.737 65.161 465.426 66.244 471.015 67.688C474.244 68.517 475.655 67.7482 476.33 64.4323C477.68 57.7871 479.378 51.2154 480.916 44.6103C482.32 38.5334 483.717 32.4698 485.302 25.6307Z" fill="white" fill-opacity="0.15"/>
<path d="M466.593 59.2361C465.825 60.9743 465.169 62.786 464.133 64.3437C464 64.5375 460.837 63.4077 460.824 62.8595C460.791 61.235 461.64 59.5971 462.201 57.7519C461.513 57.5514 459.915 57.1369 458.344 56.6221C454.734 55.4455 453.624 53.6672 454.607 50.0705C457.154 40.7378 459.801 31.4385 462.442 22.1326C463.197 19.4651 465.263 18.6161 467.65 19.3247C472.329 20.7086 476.969 22.2863 481.495 24.1114C482.398 24.4791 483.414 26.4713 483.193 27.4407C481.034 36.9807 478.714 46.4939 476.24 55.9603C475.345 59.3965 473.386 60.299 469.883 59.557C468.499 59.2628 467.128 58.9352 465.751 58.6277C466.039 58.8283 466.313 59.0288 466.593 59.2361ZM479.322 39.0397C480.218 35.1623 481.187 31.5121 481.823 27.8084C481.963 26.9861 481.174 25.4151 480.432 25.1209C476.22 23.4162 471.915 21.9253 467.596 20.508C465.584 19.8462 464.18 20.6484 463.578 22.8011C460.998 31.9934 458.384 41.179 455.77 50.3647C455.001 53.0588 456.104 54.6901 458.685 55.3786C462.649 56.4416 466.627 57.4578 470.618 58.4472C472.65 58.9486 474.275 58.1932 474.843 56.2076C476.361 50.9195 477.684 45.5713 479.075 40.2899C476.347 39.7083 474.034 39.2069 471.714 38.7122C471.781 38.3913 471.855 38.0771 471.922 37.7562C474.262 38.1573 476.608 38.5651 479.322 39.0397Z" fill="white" fill-opacity="0.15"/>
<path d="M473.753 44.1057C469.387 42.9825 465.022 41.8661 460.656 40.7429C460.75 40.3619 460.843 39.9808 460.944 39.6064C465.323 40.7162 469.701 41.8193 474.074 42.929C473.967 43.3235 473.86 43.7112 473.753 44.1057Z" fill="white" fill-opacity="0.15"/>
<path d="M466.333 23.1748C470.545 24.338 474.756 25.508 478.968 26.6712C478.861 27.0322 478.761 27.3932 478.654 27.7542C474.369 26.5977 470.083 25.4411 465.805 24.2846C465.979 23.9102 466.152 23.5425 466.333 23.1748Z" fill="white" fill-opacity="0.15"/>
<path d="M463.1 48.6318C466.657 49.3806 470.213 50.1293 473.77 50.8781C473.69 51.2592 473.609 51.6469 473.529 52.028C469.973 51.2725 466.416 50.5171 462.859 49.7617C462.94 49.3873 463.02 49.0062 463.1 48.6318Z" fill="white" fill-opacity="0.15"/>
<path d="M477.842 37.4463C474.546 36.7443 471.257 36.0357 467.961 35.3337C468.034 34.966 468.115 34.605 468.188 34.2373C471.564 34.9125 474.94 35.5944 478.316 36.2696C478.156 36.6641 477.996 37.0585 477.842 37.4463Z" fill="white" fill-opacity="0.15"/>
<path d="M472.488 122.757C469.483 118.279 465.925 115.921 461.684 115.008C452.964 113.132 449.341 102.788 455.458 96.318C457.809 93.8307 461.145 91.7892 464.415 90.7469C471.46 88.504 478.447 93.6151 477.657 100.911C476.88 108.021 474.407 114.951 472.488 122.757ZM471.956 119.034C473.617 113.082 475.356 108.215 476.291 103.205C477.829 95.0025 470.892 89.4026 463.201 92.5368C460.843 93.5001 458.542 95.0744 456.752 96.9003C451.059 102.73 453.848 111.91 461.842 113.542C464.257 114.038 466.903 113.369 469.677 113.218C470.238 114.627 470.878 116.266 471.956 119.034Z" fill="white" fill-opacity="0.15"/>
<path d="M458.534 105.202C462.157 103.743 465.787 102.284 469.41 100.824C469.568 101.22 469.733 101.622 469.892 102.018C466.261 103.47 462.631 104.922 459.001 106.367C458.85 105.979 458.692 105.59 458.534 105.202Z" fill="white" fill-opacity="0.15"/>
<path d="M469.29 98.1652C465.725 99.3657 462.159 100.573 458.601 101.774C458.465 101.407 458.328 101.041 458.199 100.674C461.75 99.4232 465.301 98.1724 468.852 96.9288C468.989 97.3385 469.139 97.7483 469.29 98.1652Z" fill="white" fill-opacity="0.15"/>
<path d="M460.236 108.2C463.269 107.021 466.296 105.843 469.329 104.671C469.473 105.03 469.617 105.39 469.76 105.749C466.691 106.986 463.621 108.222 460.559 109.466C460.444 109.041 460.336 108.624 460.236 108.2Z" fill="white" fill-opacity="0.15"/>
<path d="M581.001 22.0708C580.671 36.8282 580.003 37.5668 565.403 39.492C554.669 40.9065 543.943 42.3838 533.209 43.8375C528.274 44.5054 526.427 43.3032 525.641 38.329C524.36 30.2038 523.213 22.063 522.192 13.8985C521.445 7.91067 523.087 5.60041 529.067 4.86176C540.98 3.39231 552.924 2.22932 564.861 0.956325C567.713 0.649862 570.581 0.445554 573.426 0.076227C576.412 -0.308816 578.141 0.7363 578.534 3.86379C579.304 9.93803 580.176 16.0044 581.001 22.0708ZM528.344 6.10332C529.767 16.7352 531.079 26.4949 532.431 36.5767C546.764 34.455 560.295 32.4512 574.267 30.3846C573.253 20.8057 572.271 11.5096 571.241 1.72641C556.94 3.18014 543.07 4.59459 528.344 6.10332ZM562.865 33.7635C558.079 34.2822 553.215 33.6221 551.518 39.437C559.831 39.7199 560.798 39.2641 562.865 33.7635ZM551.274 35.7595C543.141 35.9559 541.899 36.3017 540.626 41.1186C544.996 40.8672 549.624 41.4015 551.274 35.7595ZM529.468 42.5174C534.167 42.4466 538.371 42.5566 540.1 37.1189C535.943 37.5747 531.582 37.001 529.468 42.5174ZM563.281 37.889C567.642 38.6669 570.526 37.2289 571.556 32.5298C567.548 32.4277 564.083 32.9306 563.281 37.889ZM527.763 40.4978C532.486 37.6847 531.032 34.345 529.869 30.8325C524.785 33.2842 527.048 36.8596 527.763 40.4978ZM571.1 36.9696C575.147 36.8517 577.504 35.3273 578.416 32.1605C578.651 31.3511 577.543 30.1488 576.797 28.5772C574.612 31.799 573.017 34.1407 571.1 36.9696ZM524.848 22.503C529.767 20.6878 528.344 17.4582 527.614 14.2992C522.742 15.6744 524.502 19.1083 524.848 22.503ZM528.737 22.4794C523.747 24.4911 525.783 27.815 526.191 31.0368C530.883 29.2766 529.327 25.9841 528.737 22.4794ZM574.4 15.3679C574.125 18.7626 574.518 21.5915 578.958 21.8508C579.555 18.1968 578.809 15.6115 574.4 15.3679ZM573.662 8.27999C573.85 13.9613 573.992 14.1185 578.51 14.0321C578.777 10.661 577.512 8.52359 573.662 8.27999ZM524.085 14.0713C528.203 11.6511 528.227 11.5725 526.781 7.3056C523.119 8.86149 522.742 9.79659 524.085 14.0713ZM576.09 7.7928C577.347 1.94643 576.781 1.24707 571.823 2.43363C573.457 4.48457 574.77 6.13476 576.09 7.7928ZM576.286 22.173C575.854 22.5187 575.43 22.8723 574.997 23.2181C575.186 25.7169 575.249 28.3101 579.909 27.3357C578.706 25.6148 577.496 23.8939 576.286 22.173Z" fill="white" fill-opacity="0.15"/>
<path d="M566.062 16.5391C561.355 16.5627 558.495 13.9539 558.408 10.4256C558.337 7.16454 560.459 4.68141 563.39 4.59497C566.958 4.49281 571.036 8.35896 570.737 11.8086C570.447 15.0933 568.246 16.4449 566.062 16.5391ZM566.392 15.2662C567.099 14.2839 568.789 12.9402 569.071 11.345C569.488 8.97974 565.528 5.3572 563.422 6.198C561.921 6.79521 560.223 8.91688 560.09 10.4885C559.83 13.5845 562.274 14.8497 566.392 15.2662Z" fill="white" fill-opacity="0.15"/>
<path d="M557.321 14.3624C551.349 19.0772 549.746 19.5487 545.385 18.4093C549.385 17.0577 553.353 15.714 557.321 14.3624Z" fill="white" fill-opacity="0.15"/>
<path d="M543.554 15.1641C548.025 13.6553 552.096 12.2802 556.166 10.905C552.394 13.4589 548.929 17.0186 543.554 15.1641Z" fill="white" fill-opacity="0.15"/>
<path d="M542.643 10.92C547.743 9.39553 552.01 8.11467 556.277 6.84167C556.371 7.23458 556.465 7.61962 556.56 8.01252C552.088 8.71188 548.379 12.743 542.643 10.92Z" fill="white" fill-opacity="0.15"/>
<path d="M554.028 95.4175C545.18 92.2536 536.862 94.6935 528.483 97.3546C531.56 101.008 531.667 102.449 529.569 106.431C529.126 107.262 529.126 108.354 529.019 109.333C528.878 110.66 529.012 112.041 528.717 113.321C528.154 115.775 526.847 117.906 524.019 117.604C521.19 117.296 520.312 114.957 520.352 112.423C520.399 109.42 520.741 106.424 520.862 103.421C520.908 102.228 520.701 101.028 520.647 100.311C515.761 99.5532 511.27 98.8628 506.772 98.1657C504.184 97.7635 503.166 95.0019 504.768 92.7765C505.264 92.0861 506.035 91.4493 506.215 90.6851C507.831 83.8213 512.443 79.5716 518.348 76.3809C520.795 75.0604 523.241 73.7198 525.587 72.225C529.207 69.9192 531.667 66.7956 532.464 62.3984C532.686 61.1718 533.912 60.1328 534.676 59C535.588 59.858 536.788 60.5618 537.351 61.6075C538.638 64.0139 540.166 65.2941 543.136 65.7164C550 66.6951 554.108 73.9745 551.769 80.7111C550.985 82.9767 551.354 84.5854 552.319 86.6097C553.519 89.1099 554.129 91.8984 555 94.5595C554.672 94.841 554.35 95.1292 554.028 95.4175ZM527.826 72.5803C524.186 74.618 520.748 76.0994 517.852 78.2913C514.715 80.6574 511.759 83.4392 509.312 86.5025C507.368 88.9424 506.396 92.1933 508.387 95.2499C510.304 98.1925 513.408 99.0974 516.625 98.4673C523.234 97.1804 529.777 95.5247 536.493 93.983C535.213 85.7986 532.485 78.9012 527.826 72.5803ZM554.115 93.6814C548.873 81.2741 541.232 71.2263 534.784 59.677C533.215 64.0809 531.875 67.0704 534.71 71.1057C538.035 75.838 539.952 81.569 542.325 86.9382C543.109 88.7145 543.431 90.6918 543.907 92.3542C547.124 92.7698 549.966 93.1384 554.115 93.6814ZM529.495 70.7169C532.699 78.5929 535.648 85.8389 538.671 93.2725C539.576 93.1317 540.937 92.9172 542.526 92.6625C540.495 83.6403 537.204 75.7575 531.734 68.9272C530.681 69.7785 529.823 70.4555 529.495 70.7169ZM522.256 99.0237C522.035 103.877 521.632 108.207 521.76 112.524C521.8 113.844 523.308 115.118 524.146 116.411C525.259 115.325 527.243 114.3 527.33 113.14C527.685 108.106 527.484 103.032 527.484 97.6295C525.131 98.2595 523.65 98.6483 522.256 99.0237ZM540.649 66.9297C543.705 71.977 546.628 76.8099 549.738 81.9511C553.251 74.3767 548.599 66.8023 540.649 66.9297Z" fill="white" fill-opacity="0.15"/>
<path d="M525.771 88.5807C524.745 87.7965 523.304 87.1664 522.761 86.0872C522.46 85.4906 523.452 83.9154 524.229 83.1781C525.248 82.2129 526.595 81.1404 527.882 81.0264C529.256 80.9058 531.502 81.4956 531.938 82.4408C532.42 83.4864 531.69 85.6984 530.738 86.6301C529.665 87.6691 527.748 87.8635 525.771 88.5807ZM523.17 85.6582C526.213 87.4881 528.385 86.8715 530.309 85.37C530.832 84.9611 531.207 83.5132 530.899 83.0977C530.429 82.4676 529.049 81.7973 528.512 82.0654C526.736 82.9636 525.168 84.264 523.17 85.6582Z" fill="white" fill-opacity="0.15"/>
<path d="M649.734 20.4699C653.124 21.8499 655.224 22.71 657.324 23.57C656.234 25.95 655.654 28.82 653.944 30.61C651.474 33.2 648.534 34.7599 648.854 39.3999C649.124 43.2899 644.074 45.9399 640.334 44.0299C637.444 42.5499 635.504 43.3699 633.014 44.4999C630.504 45.6399 627.744 46.6199 625.024 46.8499C621.474 47.16 620.224 44.9299 620.364 41.4099C620.454 39.2099 620.304 36.6199 619.224 34.8099C614.744 27.2799 613.134 19.8299 617.854 11.7699C618.434 10.7799 617.774 9.11995 617.904 7.78995C618.124 5.52995 617.844 1.92995 619.004 1.34995C620.794 0.449951 623.644 1.51996 626.004 1.94996C627.034 2.13996 628.004 3.24995 628.954 3.18995C638.144 2.58995 643.344 7.88993 647.194 15.2699C648.264 17.3299 649.234 19.4399 649.734 20.4699ZM629.014 28.2199C632.074 26.7599 631.894 26.7899 631.214 23.4899C630.984 22.3499 631.904 20.9799 632.294 19.7099C633.314 20.3899 634.444 20.9599 635.304 21.8099C635.774 22.2699 635.794 23.2 636.014 23.92C636.474 24.13 636.944 24.3399 637.404 24.5499C638.474 22.9699 639.864 21.5099 640.504 19.7699C641.044 18.3099 640.714 16.5299 640.764 14.8999C641.824 16.2799 642.864 17.67 643.944 19.04C644.124 19.27 644.474 19.3499 644.754 19.4999C647.354 15.7099 641.964 8.53996 635.854 6.38996C629.944 9.97996 624.884 13.3299 619.554 16.1799C616.144 17.9999 616.444 20.9199 617.074 23.4599C617.824 26.4599 619.634 29.1999 621.134 31.9699C621.204 32.0999 622.804 31.4099 623.074 31.3099C622.924 28.8999 622.584 26.93 622.814 25.04C622.874 24.55 625.224 23.6699 625.654 24.0199C626.984 25.1299 627.884 26.7299 629.014 28.2199ZM655.924 24.9999C655.614 24.4099 655.304 23.8299 654.994 23.2399C652.464 23.9599 649.704 24.2299 647.454 25.4699C640.054 29.5299 632.744 33.7799 625.644 38.3399C624.094 39.3299 623.574 41.9199 622.584 43.7799C624.694 43.9299 627.324 44.9699 628.834 44.0899C637.244 39.1799 645.414 33.8599 653.554 28.5299C654.644 27.8099 655.144 26.1999 655.924 24.9999ZM620.794 34.8099C622.204 35.7599 623.324 36.9 623.684 36.7C631.934 32 640.104 27.1599 648.284 22.3399C647.944 21.7399 647.594 21.1399 647.254 20.5299C638.794 25.0899 630.334 29.6599 620.794 34.8099ZM619.524 13.3799C619.834 13.7699 620.144 14.15 620.454 14.54C624.264 11.8 628.064 9.05996 631.874 6.32996C626.004 5.38996 622.944 7.45995 619.524 13.3799ZM639.794 40.92C639.934 41.51 640.064 42.1 640.204 42.7C642.054 42.28 644.184 42.2899 645.644 41.2999C646.684 40.5999 646.814 38.5599 647.344 37.1199C647.004 36.9699 646.664 36.8099 646.324 36.6599C644.154 38.0699 641.974 39.5 639.794 40.92ZM624.974 4.45994C624.934 3.86994 624.894 3.27995 624.854 2.68995C623.224 2.68995 621.054 2.06994 620.114 2.86994C619.244 3.61994 619.674 5.88996 619.414 8.72996C622.174 6.60996 623.574 5.53994 624.974 4.45994Z" fill="white" fill-opacity="0.15"/>
<path d="M632.563 95.4177C633.382 96.2046 634.154 97.105 634.827 98.0438C634.975 98.2538 635.031 98.5118 634.983 98.7615C634.935 99.0111 634.785 99.2322 634.568 99.3765C634.351 99.5207 634.084 99.5765 633.824 99.5315C633.564 99.4866 633.334 99.3446 633.182 99.1366C631.754 97.1278 629.884 95.4467 627.705 94.2127C625.525 92.9788 623.09 92.2223 620.573 91.9971C618.055 91.7719 615.517 92.0836 613.139 92.9099C610.761 93.7362 608.601 95.0568 606.813 96.7779C606.118 97.4474 605.428 98.2593 604.801 99.1289C604.646 99.3293 604.416 99.4638 604.161 99.5042C603.905 99.5445 603.642 99.4874 603.429 99.345C603.216 99.2026 603.069 98.986 603.019 98.7411C602.969 98.4961 603.019 98.2419 603.16 98.0323C603.826 97.0984 604.575 96.2228 605.4 95.4158C609.002 91.9481 613.888 90 618.982 90C624.076 90 628.961 91.9481 632.563 95.4158V95.4177ZM628.095 99.2135C629.056 100.151 629.861 101.225 630.481 102.399C630.592 102.625 630.608 102.884 630.524 103.121C630.44 103.358 630.264 103.554 630.033 103.668C629.802 103.782 629.533 103.805 629.285 103.731C629.036 103.658 628.827 103.494 628.702 103.275C628.178 102.28 627.497 101.369 626.684 100.574C625.467 99.402 623.98 98.5245 622.343 98.0132C620.706 97.5019 618.966 97.3714 617.267 97.6323C615.567 97.8933 613.956 98.5382 612.566 99.5143C611.175 100.49 610.045 101.77 609.267 103.248C609.208 103.361 609.127 103.462 609.027 103.545C608.927 103.628 608.812 103.691 608.687 103.731C608.562 103.771 608.43 103.787 608.298 103.777C608.167 103.768 608.039 103.733 607.922 103.676C607.804 103.619 607.7 103.54 607.614 103.443C607.528 103.347 607.463 103.235 607.423 103.115C607.382 102.994 607.367 102.867 607.377 102.741C607.388 102.614 607.424 102.491 607.485 102.378C608.405 100.629 609.743 99.1151 611.389 97.96C613.034 96.8048 614.941 96.0416 616.952 95.7328C618.963 95.424 621.022 95.5784 622.959 96.1835C624.896 96.7885 626.657 97.8269 628.097 99.2135H628.095ZM624.68 104.017C625.389 104.698 625.973 105.537 626.378 106.43C626.481 106.663 626.484 106.926 626.387 107.161C626.289 107.396 626.1 107.585 625.859 107.686C625.618 107.788 625.345 107.794 625.1 107.703C624.855 107.612 624.656 107.432 624.548 107.201C624.241 106.523 623.808 105.905 623.269 105.378C622.706 104.836 622.038 104.406 621.302 104.112C620.567 103.819 619.779 103.668 618.983 103.668C618.187 103.668 617.398 103.819 616.663 104.112C615.927 104.406 615.259 104.836 614.696 105.378C614.163 105.898 613.735 106.51 613.435 107.182C613.384 107.299 613.309 107.406 613.214 107.495C613.12 107.584 613.008 107.654 612.885 107.701C612.762 107.748 612.631 107.771 612.499 107.769C612.366 107.767 612.236 107.739 612.115 107.688C611.994 107.637 611.884 107.563 611.793 107.471C611.702 107.379 611.63 107.271 611.583 107.152C611.535 107.033 611.513 106.906 611.517 106.779C611.521 106.652 611.551 106.527 611.605 106.411C612.005 105.519 612.574 104.708 613.284 104.017C614.795 102.563 616.845 101.745 618.982 101.745C621.119 101.745 623.168 102.563 624.68 104.017ZM620.835 107.736C621.076 107.968 621.267 108.244 621.397 108.547C621.528 108.85 621.595 109.174 621.595 109.502C621.595 109.83 621.528 110.155 621.397 110.458C621.267 110.761 621.076 111.037 620.835 111.268C620.594 111.5 620.308 111.684 619.993 111.81C619.679 111.935 619.341 112 619.001 112C618.66 112 618.323 111.935 618.008 111.81C617.693 111.684 617.407 111.5 617.166 111.268C616.68 110.8 616.406 110.165 616.406 109.502C616.406 108.84 616.68 108.205 617.166 107.736C617.653 107.268 618.313 107.005 619.001 107.005C619.689 107.005 620.349 107.268 620.835 107.736Z" fill="white" fill-opacity="0.15"/>
</svg>
