<svg width="65" height="23" viewBox="0 0 65 23" fill="none" xmlns="http://www.w3.org/2000/svg">
<rect width="65" height="23" rx="2" fill="#EFF3FF"/>
<path d="M20.578 6.939V7.901H18.108V16H16.925V7.901H14.442V6.939H20.578ZM26.2722 16.091C25.4315 16.091 24.6645 15.896 23.9712 15.506C23.2779 15.1073 22.7275 14.557 22.3202 13.855C21.9215 13.1443 21.7222 12.347 21.7222 11.463C21.7222 10.579 21.9215 9.786 22.3202 9.084C22.7275 8.37333 23.2779 7.823 23.9712 7.433C24.6645 7.03433 25.4315 6.835 26.2722 6.835C27.1215 6.835 27.8929 7.03433 28.5862 7.433C29.2795 7.823 29.8255 8.369 30.2242 9.071C30.6229 9.773 30.8222 10.5703 30.8222 11.463C30.8222 12.3557 30.6229 13.153 30.2242 13.855C29.8255 14.557 29.2795 15.1073 28.5862 15.506C27.8929 15.896 27.1215 16.091 26.2722 16.091ZM26.2722 15.064C26.9049 15.064 27.4725 14.9167 27.9752 14.622C28.4865 14.3273 28.8852 13.907 29.1712 13.361C29.4659 12.815 29.6132 12.1823 29.6132 11.463C29.6132 10.735 29.4659 10.1023 29.1712 9.565C28.8852 9.019 28.4909 8.59867 27.9882 8.304C27.4855 8.00933 26.9135 7.862 26.2722 7.862C25.6309 7.862 25.0589 8.00933 24.5562 8.304C24.0535 8.59867 23.6549 9.019 23.3602 9.565C23.0742 10.1023 22.9312 10.735 22.9312 11.463C22.9312 12.1823 23.0742 12.815 23.3602 13.361C23.6549 13.907 24.0535 14.3273 24.5562 14.622C25.0675 14.9167 25.6395 15.064 26.2722 15.064ZM35.3349 6.939C36.3229 6.939 37.1766 7.12533 37.8959 7.498C38.6239 7.862 39.1786 8.38633 39.5599 9.071C39.9499 9.75567 40.1449 10.5617 40.1449 11.489C40.1449 12.4163 39.9499 13.2223 39.5599 13.907C39.1786 14.583 38.6239 15.103 37.8959 15.467C37.1766 15.8223 36.3229 16 35.3349 16H32.5139V6.939H35.3349ZM35.3349 15.025C36.5049 15.025 37.3976 14.7173 38.0129 14.102C38.6283 13.478 38.9359 12.607 38.9359 11.489C38.9359 10.3623 38.6239 9.48267 37.9999 8.85C37.3846 8.21733 36.4963 7.901 35.3349 7.901H33.6969V15.025H35.3349ZM45.9433 16.091C45.1027 16.091 44.3357 15.896 43.6423 15.506C42.949 15.1073 42.3987 14.557 41.9913 13.855C41.5927 13.1443 41.3933 12.347 41.3933 11.463C41.3933 10.579 41.5927 9.786 41.9913 9.084C42.3987 8.37333 42.949 7.823 43.6423 7.433C44.3357 7.03433 45.1027 6.835 45.9433 6.835C46.7927 6.835 47.564 7.03433 48.2573 7.433C48.9507 7.823 49.4967 8.369 49.8953 9.071C50.294 9.773 50.4933 10.5703 50.4933 11.463C50.4933 12.3557 50.294 13.153 49.8953 13.855C49.4967 14.557 48.9507 15.1073 48.2573 15.506C47.564 15.896 46.7927 16.091 45.9433 16.091ZM45.9433 15.064C46.576 15.064 47.1437 14.9167 47.6463 14.622C48.1577 14.3273 48.5563 13.907 48.8423 13.361C49.137 12.815 49.2843 12.1823 49.2843 11.463C49.2843 10.735 49.137 10.1023 48.8423 9.565C48.5563 9.019 48.162 8.59867 47.6593 8.304C47.1567 8.00933 46.5847 7.862 45.9433 7.862C45.302 7.862 44.73 8.00933 44.2273 8.304C43.7247 8.59867 43.326 9.019 43.0313 9.565C42.7453 10.1023 42.6023 10.735 42.6023 11.463C42.6023 12.1823 42.7453 12.815 43.0313 13.361C43.326 13.907 43.7247 14.3273 44.2273 14.622C44.7387 14.9167 45.3107 15.064 45.9433 15.064Z" fill="#376AF5"/>
</svg>
