<svg width="36" height="36" viewBox="0 0 36 36" fill="none" xmlns="http://www.w3.org/2000/svg">
<circle cx="18" cy="18" r="18" fill="#EFF3FF"/>
<path d="M26.5145 20.3541L26.5159 20.3548C26.565 20.3769 26.6 20.4292 26.6 20.49V23.45C26.6 23.5439 26.5343 23.6 26.46 23.6H9.62C9.54335 23.6 9.48312 23.5729 9.44637 23.5406C9.41125 23.5098 9.4 23.4782 9.4 23.45V20.49C9.4 20.4641 9.4202 20.3999 9.51576 20.3625L9.51783 20.3617C10.5263 19.9606 11.23 19.048 11.23 18C11.23 16.952 10.5263 16.0394 9.51783 15.6383L9.51783 15.6383L9.51576 15.6375C9.4202 15.6001 9.4 15.5359 9.4 15.51V12.55C9.4 12.5218 9.41125 12.4902 9.44637 12.4594C9.48312 12.4271 9.54335 12.4 9.62 12.4H26.46C26.5343 12.4 26.6 12.4561 26.6 12.55V15.51C26.6 15.5708 26.565 15.6231 26.5159 15.6452L26.5145 15.6459C25.5997 16.0617 25.01 16.9854 25.01 18C25.01 19.0146 25.5997 19.9383 26.5145 20.3541Z" stroke="#376AF5" stroke-width="0.8"/>
<rect x="19.8" y="15" width="1.44" height="1.44" fill="#376AF5"/>
<rect x="19.8" y="17.3999" width="1.44" height="1.44" fill="#376AF5"/>
<rect x="19.8" y="19.8" width="1.44" height="1.44" fill="#376AF5"/>
</svg>
