<svg width="16" height="20" viewBox="0 0 16 20" fill="none" xmlns="http://www.w3.org/2000/svg">
<path d="M15.778 4.43961C15.7563 4.43961 15.7563 4.41785 15.7345 4.39608C15.7127 4.37432 15.7127 4.35256 15.691 4.33079L11.9478 0.130577C11.926 0.108814 11.8825 0.0870511 11.8607 0.0652884C11.839 0.0652884 11.839 0.0435256 11.8172 0.0435256C11.7737 0.0217628 11.7084 0 11.6431 0H2.45919C1.1099 0 0 1.1099 0 2.45919V17.5408C0 18.8901 1.1099 20 2.45919 20H13.3406C14.6899 20 15.7998 18.8901 15.7998 17.5408V4.59195C15.7998 4.54842 15.778 4.48313 15.778 4.43961ZM12.0566 1.47987L14.4723 4.20022H12.0566V1.47987ZM14.9728 17.519C14.9728 18.4331 14.2546 19.173 13.3406 19.173H2.45919C1.54516 19.173 0.826986 18.4331 0.826986 17.5408V2.43743C0.826986 1.52339 1.56692 0.805223 2.45919 0.805223H11.2296V4.59195C11.2296 4.80958 11.4037 5.00544 11.6431 5.00544H14.9728V17.519Z" fill="#333333"/>
<path d="M4.134 8.82927V12.9993H3.45V8.82927H4.134ZM4.80403 10.9053C4.80403 10.4973 4.89803 10.1313 5.08603 9.80727C5.27803 9.48327 5.53603 9.23127 5.86003 9.05127C6.18803 8.86727 6.54603 8.77527 6.93403 8.77527C7.37803 8.77527 7.77203 8.88527 8.11603 9.10527C8.46403 9.32127 8.71603 9.62927 8.87203 10.0293H8.05003C7.94203 9.80927 7.79203 9.64527 7.60003 9.53727C7.40803 9.42927 7.18603 9.37527 6.93403 9.37527C6.65803 9.37527 6.41203 9.43727 6.19603 9.56127C5.98003 9.68527 5.81003 9.86327 5.68603 10.0953C5.56603 10.3273 5.50603 10.5973 5.50603 10.9053C5.50603 11.2133 5.56603 11.4833 5.68603 11.7153C5.81003 11.9473 5.98003 12.1273 6.19603 12.2553C6.41203 12.3793 6.65803 12.4413 6.93403 12.4413C7.18603 12.4413 7.40803 12.3873 7.60003 12.2793C7.79203 12.1713 7.94203 12.0073 8.05003 11.7873H8.87203C8.71603 12.1873 8.46403 12.4953 8.11603 12.7113C7.77203 12.9273 7.37803 13.0353 6.93403 13.0353C6.54203 13.0353 6.18403 12.9453 5.86003 12.7653C5.53603 12.5813 5.27803 12.3273 5.08603 12.0033C4.89803 11.6793 4.80403 11.3133 4.80403 10.9053ZM11.0467 13.0413C10.7667 13.0413 10.5147 12.9933 10.2907 12.8973C10.0667 12.7973 9.89066 12.6573 9.76266 12.4773C9.63466 12.2973 9.57066 12.0873 9.57066 11.8473H10.3027C10.3187 12.0273 10.3887 12.1753 10.5127 12.2913C10.6407 12.4073 10.8187 12.4653 11.0467 12.4653C11.2827 12.4653 11.4667 12.4093 11.5987 12.2973C11.7307 12.1813 11.7967 12.0333 11.7967 11.8533C11.7967 11.7133 11.7547 11.5993 11.6707 11.5113C11.5907 11.4233 11.4887 11.3553 11.3647 11.3073C11.2447 11.2593 11.0767 11.2073 10.8607 11.1513C10.5887 11.0793 10.3667 11.0073 10.1947 10.9353C10.0267 10.8593 9.88266 10.7433 9.76266 10.5873C9.64266 10.4313 9.58266 10.2233 9.58266 9.96327C9.58266 9.72327 9.64266 9.51327 9.76266 9.33327C9.88266 9.15327 10.0507 9.01527 10.2667 8.91927C10.4827 8.82327 10.7327 8.77527 11.0167 8.77527C11.4207 8.77527 11.7507 8.87727 12.0067 9.08127C12.2667 9.28127 12.4107 9.55727 12.4387 9.90927H11.6827C11.6707 9.75727 11.5987 9.62727 11.4667 9.51927C11.3347 9.41127 11.1607 9.35727 10.9447 9.35727C10.7487 9.35727 10.5887 9.40727 10.4647 9.50727C10.3407 9.60727 10.2787 9.75127 10.2787 9.93927C10.2787 10.0673 10.3167 10.1733 10.3927 10.2573C10.4727 10.3373 10.5727 10.4013 10.6927 10.4493C10.8127 10.4973 10.9767 10.5493 11.1847 10.6053C11.4607 10.6813 11.6847 10.7573 11.8567 10.8333C12.0327 10.9093 12.1807 11.0273 12.3007 11.1873C12.4247 11.3433 12.4867 11.5533 12.4867 11.8173C12.4867 12.0293 12.4287 12.2293 12.3127 12.4173C12.2007 12.6053 12.0347 12.7573 11.8147 12.8733C11.5987 12.9853 11.3427 13.0413 11.0467 13.0413Z" fill="#333333"/>
</svg>
