<svg width="10" height="14" viewBox="0 0 10 14" fill="none" xmlns="http://www.w3.org/2000/svg">
<path d="M5.27124 11.8771L8.19613 6.99352L5.27124 11.8771ZM5.27124 11.8771L2.26986 7.04038L5.27124 11.8771ZM1.74844 5.21875C1.74844 5.86433 1.93169 6.49422 2.26984 7.04034L1.74844 5.21875ZM1.74844 5.21875C1.74844 3.30785 3.30785 1.74844 5.21875 1.74844M1.74844 5.21875L5.21875 1.74844M5.21875 1.74844C7.12961 1.74844 8.68672 3.30781 8.68672 5.21875M5.21875 1.74844L8.68672 5.21875M8.68672 5.21875C8.68672 5.84528 8.51551 6.45908 8.19615 6.99348L8.68672 5.21875ZM1.58723 7.46348L1.58726 7.46352L5.57894 12.8291L5.62183 12.8548L5.62184 12.8548L8.88534 7.40585L8.88536 7.40581C9.27932 6.74664 9.4875 5.99037 9.4875 5.21875C9.4875 2.86492 7.57258 0.95 5.21875 0.95C2.86492 0.95 0.95 2.86492 0.95 5.21875C0.95 6.01396 1.17028 6.7901 1.58723 7.46348Z" fill="#333333" stroke="#666666" stroke-width="0.1"/>
<path d="M5.21875 3.05937C4.02803 3.05937 3.05937 4.02803 3.05937 5.21875C3.05937 6.40169 4.01228 7.37813 5.21875 7.37813C6.44017 7.37813 7.37813 6.38856 7.37813 5.21875C7.37813 4.02803 6.40947 3.05937 5.21875 3.05937ZM5.21875 6.57969C4.46695 6.57969 3.85781 5.96854 3.85781 5.21875C3.85781 4.47096 4.47096 3.85781 5.21875 3.85781C5.96643 3.85781 6.57734 4.47085 6.57734 5.21875C6.57734 5.95785 5.98225 6.57969 5.21875 6.57969Z" fill="#333333" stroke="#666666" stroke-width="0.1"/>
</svg>
