<svg width="12" height="14" viewBox="0 0 12 14" fill="none" xmlns="http://www.w3.org/2000/svg">
<path d="M6.27344 0.95C4.50116 0.95 3.05937 2.39178 3.05937 4.16406C3.05937 5.93634 4.50116 7.37813 6.27344 7.37813C8.04572 7.37813 9.4875 5.93634 9.4875 4.16406C9.4875 2.39178 8.04572 0.95 6.27344 0.95ZM6.27344 6.575C4.94409 6.575 3.8625 5.49341 3.8625 4.16406C3.8625 2.83472 4.94409 1.75313 6.27344 1.75313C7.60278 1.75313 8.68437 2.83472 8.68437 4.16406C8.68437 5.49341 7.60278 6.575 6.27344 6.575Z" fill="#333333" stroke="#666666" stroke-width="0.1"/>
<path d="M10.2458 9.36011C9.37025 8.47114 8.20911 7.98125 6.97656 7.98125H5.57031C4.33779 7.98125 3.17662 8.47114 2.30111 9.36011C1.42994 10.2447 0.95 11.4126 0.95 12.6484C0.95 12.8702 1.12979 13.05 1.35156 13.05H11.1953C11.4171 13.05 11.5969 12.8702 11.5969 12.6484C11.5969 11.4126 11.1169 10.2447 10.2458 9.36011ZM10.7733 12.2469H1.77359C1.9726 10.3037 3.59995 8.78438 5.57031 8.78438H6.97656C8.94693 8.78438 10.5743 10.3037 10.7733 12.2469Z" fill="#333333" stroke="#666666" stroke-width="0.1"/>
</svg>
