<svg width="24" height="24" viewBox="0 0 24 24" fill="none" xmlns="http://www.w3.org/2000/svg">
<path d="M12 24C18.6274 24 24 18.6274 24 12C24 5.37258 18.6274 0 12 0C5.37258 0 0 5.37258 0 12C0 18.6274 5.37258 24 12 24Z" fill="#376AF5"/>
<path d="M14.8826 14.0634L13.3541 13.2992C13.2099 13.2271 13.1203 13.0821 13.1203 12.9209V12.3799C13.157 12.3351 13.1955 12.284 13.2353 12.2277C13.4336 11.9477 13.5925 11.636 13.708 11.2999C13.9337 11.1964 14.0803 10.9732 14.0803 10.7212V10.0812C14.0803 9.92709 14.0227 9.77781 13.9203 9.66117V8.81013C13.9293 8.72212 13.9645 8.19828 13.5856 7.76613C13.2569 7.39125 12.7237 7.20117 12.0003 7.20117C11.2769 7.20117 10.7437 7.39125 10.415 7.76596C10.0361 8.19813 10.0714 8.72212 10.0803 8.81013V9.66117C9.97792 9.77781 9.92032 9.92709 9.92032 10.0812V10.7212C9.92032 10.9159 10.0088 11.0975 10.1598 11.2186C10.3064 11.7989 10.6131 12.2362 10.7203 12.3765V12.906C10.7203 13.0608 10.6358 13.2029 10.5 13.2772L9.07264 14.0557C8.60848 14.309 8.32031 14.7944 8.32031 15.3231V15.8412C8.32031 16.6005 10.7275 16.8012 12.0003 16.8012C13.2731 16.8012 15.6803 16.6005 15.6803 15.8412V15.3543C15.6803 14.8042 15.3746 14.3095 14.8826 14.0634Z" fill="white"/>
</svg>
