<svg width="32" height="22" viewBox="0 0 32 22" fill="none" xmlns="http://www.w3.org/2000/svg">
<path d="M29.563 5.41775C30.3823 6.20461 31.1536 7.10498 31.827 8.04382C31.9754 8.25383 32.0315 8.51181 31.983 8.76147C31.9345 9.01112 31.7855 9.2322 31.5684 9.37646C31.3513 9.52072 31.0837 9.57646 30.8241 9.53152C30.5644 9.48659 30.3338 9.34461 30.1825 9.13658C28.7545 7.12783 26.8843 5.44669 24.7049 4.21273C22.5255 2.97877 20.0905 2.22229 17.573 1.99711C15.0555 1.77193 12.5174 2.08357 10.1392 2.90987C7.76097 3.73617 5.6011 5.05683 3.81316 6.77792C3.11776 7.44742 2.42835 8.25929 1.80089 9.12888C1.64613 9.32925 1.4165 9.46383 1.16054 9.50416C0.904592 9.5445 0.642377 9.48744 0.429331 9.34503C0.216285 9.20263 0.0691044 8.98604 0.0189006 8.74107C-0.0313031 8.49609 0.0194052 8.24192 0.160307 8.03228C0.825557 7.09835 1.57516 6.2228 2.40038 5.41583C6.00244 1.94812 10.8878 0 15.9817 0C21.0756 0 25.9609 1.94812 29.563 5.41583V5.41775ZM25.0948 9.21353C26.0561 10.1507 26.8609 11.2254 27.4808 12.3994C27.5922 12.6255 27.6077 12.8844 27.5241 13.1213C27.4405 13.3582 27.2643 13.5544 27.0329 13.6683C26.8015 13.7822 26.5331 13.8048 26.2847 13.7313C26.0363 13.6579 25.8274 13.4941 25.7023 13.2748C25.1777 12.2799 24.497 11.3689 23.6841 10.5737C22.4674 9.40196 20.9796 8.52449 19.3427 8.01322C17.7058 7.50194 15.9663 7.37142 14.2668 7.63234C12.5674 7.89327 10.9564 8.53822 9.56584 9.51433C8.17529 10.4904 7.04481 11.7699 6.26705 13.2479C6.20819 13.3613 6.12663 13.4624 6.02705 13.5453C5.92747 13.6283 5.81184 13.6915 5.68681 13.7313C5.56178 13.7711 5.42981 13.7867 5.29849 13.7772C5.16718 13.7677 5.03911 13.7333 4.92164 13.676C4.80418 13.6187 4.69964 13.5396 4.61404 13.4432C4.52843 13.3469 4.46345 13.2352 4.42284 13.1146C4.38222 12.994 4.36676 12.8669 4.37736 12.7405C4.38796 12.6142 4.4244 12.491 4.48458 12.3783C5.40508 10.6292 6.74299 9.11509 8.38864 7.95996C10.0343 6.80482 11.9408 6.04158 13.952 5.73279C15.9632 5.42399 18.0218 5.57844 19.959 6.18347C21.8962 6.7885 23.6569 7.82689 25.0968 9.21353H25.0948ZM21.6798 14.0174C22.3892 14.6985 22.9727 15.5373 23.3783 16.4299C23.4809 16.663 23.4839 16.9256 23.3866 17.1608C23.2894 17.396 23.0998 17.5848 22.859 17.6863C22.6181 17.7878 22.3454 17.7939 22.1 17.7031C21.8546 17.6123 21.6562 17.4321 21.5479 17.2014C21.2414 16.5231 20.8079 15.9049 20.269 15.3776C19.7062 14.8356 19.0379 14.4056 18.3025 14.1122C17.567 13.8189 16.7788 13.6679 15.9827 13.6679C15.1866 13.6679 14.3983 13.8189 13.6629 14.1122C12.9274 14.4056 12.2592 14.8356 11.6964 15.3776C11.163 15.8982 10.7353 16.5103 10.4355 17.1822C10.3839 17.2994 10.3087 17.4056 10.2142 17.4946C10.1196 17.5836 10.0077 17.6537 9.88488 17.7007C9.76204 17.7478 9.63072 17.7709 9.49852 17.7688C9.36632 17.7666 9.23589 17.7392 9.11477 17.6882C8.99365 17.6371 8.88426 17.5634 8.79294 17.4714C8.70162 17.3793 8.63018 17.2708 8.58277 17.1519C8.53536 17.0331 8.51291 16.9064 8.51673 16.7792C8.52055 16.6519 8.55057 16.5267 8.60503 16.4107C9.00477 15.5192 9.57406 14.7075 10.2836 14.0174C11.7949 12.5626 13.8445 11.7454 15.9817 11.7454C18.1188 11.7454 20.1685 12.5626 21.6798 14.0174ZM17.8351 17.7362C18.076 17.9682 18.2671 18.2435 18.3975 18.5465C18.5278 18.8496 18.5949 19.1744 18.5949 19.5023C18.5949 19.8303 18.5278 20.1551 18.3975 20.4582C18.2671 20.7612 18.076 21.0365 17.8351 21.2685C17.5942 21.5004 17.3082 21.6844 16.9934 21.8099C16.6787 21.9354 16.3414 22 16.0007 22C15.66 22 15.3226 21.9354 15.0079 21.8099C14.6931 21.6844 14.4071 21.5004 14.1662 21.2685C13.6797 20.8001 13.4064 20.1648 13.4064 19.5023C13.4064 18.8399 13.6797 18.2046 14.1662 17.7362C14.6528 17.2678 15.3126 17.0047 16.0007 17.0047C16.6887 17.0047 17.3486 17.2678 17.8351 17.7362Z" fill="white" fill-opacity="0.15"/>
</svg>
