<svg width="20" height="12" viewBox="0 0 20 12" fill="none" xmlns="http://www.w3.org/2000/svg">
<path d="M19.0456 1.07029C18.9216 0.997636 18.7684 0.994799 18.642 1.06304L14.2263 3.44886V2.01734C14.225 0.903704 13.313 0.00126084 12.1876 0H2.0387C0.913272 0.00126084 0.00127418 0.903704 0 2.01734V9.98266C0.00127418 11.0963 0.913272 11.9987 2.0387 12H12.1876C13.313 11.9987 14.225 11.0963 14.2263 9.98266V8.57715L18.6421 10.963C18.7684 11.0312 18.9218 11.0285 19.0456 10.9559C19.1695 10.8831 19.2453 10.7511 19.2453 10.6088V1.41718C19.2453 1.2747 19.1693 1.14295 19.0456 1.07029ZM13.4105 9.98282C13.4098 10.6511 12.8626 11.1924 12.1873 11.1932H2.0387C1.36338 11.1924 0.816274 10.6511 0.815478 9.98282V2.01734C0.816274 1.34925 1.36338 0.807723 2.0387 0.806935H12.1876C12.8627 0.807723 13.41 1.34925 13.4108 2.01734L13.4105 9.98282ZM18.4298 9.92892L14.2263 7.65784V4.36816L18.4298 2.09724V9.92892Z" fill="white"/>
</svg>
