<svg width="12" height="14" viewBox="0 0 12 14" fill="none" xmlns="http://www.w3.org/2000/svg">
<path d="M6.4 2.84C6.4 3.03323 6.55677 3.19 6.75 3.19C6.9431 3.19 7.1 3.03386 7.1 2.84V2C7.1 1.39327 6.60673 0.9 6 0.9C5.39327 0.9 4.9 1.39327 4.9 2V2.84C4.9 3.03386 5.0569 3.19 5.25 3.19C5.44323 3.19 5.6 3.03323 5.6 2.84V2C5.6 1.77973 5.77973 1.6 6 1.6C6.22027 1.6 6.4 1.77973 6.4 2V2.84Z" fill="#333333" stroke="#666666" stroke-width="0.2"/>
<path d="M4.15 11.25C4.15 12.2702 4.97977 13.1 6 13.1C7.02023 13.1 7.85 12.2702 7.85 11.25C7.85 11.0568 7.69323 10.9 7.5 10.9C7.30677 10.9 7.15 11.0568 7.15 11.25C7.15 11.8838 6.63377 12.4 6 12.4C5.36623 12.4 4.85 11.8838 4.85 11.25C4.85 11.0568 4.69323 10.9 4.5 10.9C4.30677 10.9 4.15 11.0568 4.15 11.25Z" fill="#333333" stroke="#666666" stroke-width="0.2"/>
<path d="M1.19795 10.1036L1.19746 10.104C1.00829 10.266 0.9 10.5013 0.9 10.75C0.9 11.2187 1.28127 11.6 1.75 11.6H10.25C10.7193 11.6 11.1 11.2187 11.1 10.75C11.1 10.5009 10.9914 10.2658 10.7986 10.1006L10.798 10.1001C10.0365 9.45662 9.6 8.51606 9.6 7.519V6C9.6 4.01477 7.98522 2.4 6 2.4C4.01477 2.4 2.4 4.01477 2.4 6V7.519C2.4 8.51549 1.96352 9.45657 1.19795 10.1036ZM3.1 6C3.1 4.40073 4.40073 3.1 6 3.1L10.4125 10.56L10.3475 10.636C10.3475 10.636 10.3476 10.6361 10.3477 10.6362C10.3809 10.6647 10.4 10.7063 10.4 10.75C10.4 10.8328 10.3328 10.9 10.25 10.9H1.75C1.66723 10.9 1.6 10.8328 1.6 10.75C1.6 10.7068 1.61877 10.665 1.65428 10.6347C2.57311 9.85768 3.1 8.72234 3.1 7.519V6Z" fill="#333333" stroke="#666666" stroke-width="0.2"/>
</svg>
