<svg width="63" height="20" viewBox="0 0 63 20" fill="none" xmlns="http://www.w3.org/2000/svg">
<rect width="63" height="19.4078" rx="2" fill="#EFF3FF"/>
<path d="M9.02393 13.2346H7.39111L7.40186 12.3914H9.02393C9.58252 12.3914 10.048 12.275 10.4204 12.0422C10.7928 11.8059 11.0721 11.4765 11.2583 11.054C11.4481 10.6278 11.543 10.1301 11.543 9.56079V9.08276C11.543 8.63517 11.4893 8.23771 11.3818 7.89038C11.2744 7.53947 11.1169 7.24406 10.9092 7.00415C10.7015 6.76066 10.4473 6.57625 10.1465 6.45093C9.84928 6.3256 9.50732 6.26294 9.12061 6.26294H7.35889V5.41431H9.12061C9.63265 5.41431 10.0999 5.50024 10.5225 5.67212C10.945 5.84041 11.3084 6.08569 11.6128 6.40796C11.9207 6.72664 12.1571 7.11336 12.3218 7.56812C12.4865 8.01929 12.5688 8.52775 12.5688 9.09351V9.56079C12.5688 10.1265 12.4865 10.6368 12.3218 11.0916C12.1571 11.5427 11.9189 11.9277 11.6074 12.2463C11.2995 12.565 10.9271 12.8103 10.4902 12.9822C10.057 13.1505 9.5682 13.2346 9.02393 13.2346ZM7.94434 5.41431V13.2346H6.90771V5.41431H7.94434ZM17.5128 12.241V9.24927C17.5128 9.0201 17.4663 8.82137 17.3732 8.65308C17.2837 8.4812 17.1476 8.34871 16.965 8.25562C16.7824 8.16252 16.5568 8.11597 16.2882 8.11597C16.0376 8.11597 15.8174 8.15894 15.6276 8.24487C15.4414 8.33081 15.2946 8.4436 15.1871 8.58325C15.0833 8.7229 15.0314 8.87329 15.0314 9.03442H14.0377C14.0377 8.82674 14.0914 8.62085 14.1989 8.41675C14.3063 8.21265 14.4603 8.02824 14.6608 7.86353C14.8649 7.69523 15.1084 7.56274 15.3913 7.46606C15.6777 7.3658 15.9964 7.31567 16.3473 7.31567C16.7698 7.31567 17.1422 7.38729 17.4645 7.53052C17.7903 7.67375 18.0446 7.89038 18.2272 8.18042C18.4134 8.46688 18.5065 8.82674 18.5065 9.26001V11.967C18.5065 12.1604 18.5226 12.3663 18.5548 12.5847C18.5906 12.8031 18.6426 12.9911 18.7106 13.1487V13.2346H17.674C17.6238 13.12 17.5844 12.9679 17.5558 12.7781C17.5272 12.5847 17.5128 12.4057 17.5128 12.241ZM17.6847 9.71118L17.6954 10.4094H16.6911C16.4082 10.4094 16.1557 10.4327 15.9337 10.4792C15.7117 10.5222 15.5255 10.5885 15.3751 10.678C15.2247 10.7675 15.1102 10.8803 15.0314 11.0164C14.9526 11.1488 14.9132 11.3046 14.9132 11.4836C14.9132 11.6663 14.9544 11.8328 15.0368 11.9832C15.1191 12.1335 15.2426 12.2535 15.4074 12.343C15.5757 12.429 15.7815 12.4719 16.025 12.4719C16.3294 12.4719 16.598 12.4075 16.8307 12.2786C17.0635 12.1497 17.2479 11.9921 17.3839 11.8059C17.5236 11.6197 17.5988 11.4389 17.6095 11.2634L18.0338 11.7415C18.0088 11.8918 17.9407 12.0583 17.8297 12.241C17.7187 12.4236 17.5701 12.599 17.3839 12.7673C17.2013 12.932 16.9829 13.0699 16.7287 13.1809C16.478 13.2883 16.1951 13.342 15.88 13.342C15.4861 13.342 15.1406 13.2651 14.8434 13.1111C14.5498 12.9571 14.3206 12.7512 14.1559 12.4934C13.9948 12.232 13.9142 11.9402 13.9142 11.6179C13.9142 11.3064 13.9751 11.0325 14.0968 10.7961C14.2186 10.5562 14.394 10.3575 14.6232 10.2C14.8524 10.0388 15.1281 9.91707 15.4503 9.83472C15.7726 9.75236 16.1325 9.71118 16.5299 9.71118H17.6847ZM21.2591 7.4231V13.2346H20.26V7.4231H21.2591ZM20.1848 5.88159C20.1848 5.72046 20.2332 5.58439 20.3299 5.47339C20.4301 5.36239 20.5769 5.30688 20.7703 5.30688C20.9601 5.30688 21.1051 5.36239 21.2054 5.47339C21.3092 5.58439 21.3611 5.72046 21.3611 5.88159C21.3611 6.03556 21.3092 6.16805 21.2054 6.27905C21.1051 6.38647 20.9601 6.44019 20.7703 6.44019C20.5769 6.44019 20.4301 6.38647 20.3299 6.27905C20.2332 6.16805 20.1848 6.03556 20.1848 5.88159ZM24.0439 4.98462V13.2346H23.0448V4.98462H24.0439ZM27.3819 12.6331L28.9986 7.4231H30.0621L27.731 14.1316C27.6773 14.2748 27.6057 14.4288 27.5162 14.5935C27.4302 14.7618 27.3192 14.9211 27.1832 15.0715C27.0471 15.2219 26.8824 15.3437 26.689 15.4368C26.4992 15.5334 26.2719 15.5818 26.0069 15.5818C25.9281 15.5818 25.8279 15.571 25.7061 15.5496C25.5844 15.5281 25.4984 15.5102 25.4483 15.4958L25.4429 14.6902C25.4716 14.6938 25.5163 14.6973 25.5772 14.7009C25.6417 14.7081 25.6864 14.7117 25.7115 14.7117C25.9371 14.7117 26.1286 14.6812 26.2862 14.6204C26.4437 14.5631 26.5762 14.4646 26.6837 14.325C26.7947 14.1889 26.8895 14.0009 26.9683 13.761L27.3819 12.6331ZM26.1949 7.4231L27.7042 11.9348L27.962 12.9822L27.2476 13.3474L25.1099 7.4231H26.1949ZM36.7328 5.41431V13.2346H35.7122V5.41431H36.7328ZM39.2464 5.41431V6.26294H33.2039V5.41431H39.2464ZM43.1806 12.241V9.24927C43.1806 9.0201 43.1341 8.82137 43.041 8.65308C42.9515 8.4812 42.8154 8.34871 42.6328 8.25562C42.4502 8.16252 42.2246 8.11597 41.956 8.11597C41.7054 8.11597 41.4852 8.15894 41.2954 8.24487C41.1092 8.33081 40.9624 8.4436 40.855 8.58325C40.7511 8.7229 40.6992 8.87329 40.6992 9.03442H39.7055C39.7055 8.82674 39.7593 8.62085 39.8667 8.41675C39.9741 8.21265 40.1281 8.02824 40.3286 7.86353C40.5327 7.69523 40.7762 7.56274 41.0591 7.46606C41.3455 7.3658 41.6642 7.31567 42.0151 7.31567C42.4376 7.31567 42.81 7.38729 43.1323 7.53052C43.4582 7.67375 43.7124 7.89038 43.895 8.18042C44.0812 8.46688 44.1743 8.82674 44.1743 9.26001V11.967C44.1743 12.1604 44.1904 12.3663 44.2226 12.5847C44.2584 12.8031 44.3104 12.9911 44.3784 13.1487V13.2346H43.3418C43.2916 13.12 43.2523 12.9679 43.2236 12.7781C43.195 12.5847 43.1806 12.4057 43.1806 12.241ZM43.3525 9.71118L43.3633 10.4094H42.3589C42.076 10.4094 41.8235 10.4327 41.6015 10.4792C41.3795 10.5222 41.1933 10.5885 41.0429 10.678C40.8926 10.7675 40.778 10.8803 40.6992 11.0164C40.6204 11.1488 40.581 11.3046 40.581 11.4836C40.581 11.6663 40.6222 11.8328 40.7046 11.9832C40.7869 12.1335 40.9105 12.2535 41.0752 12.343C41.2435 12.429 41.4494 12.4719 41.6929 12.4719C41.9972 12.4719 42.2658 12.4075 42.4985 12.2786C42.7313 12.1497 42.9157 11.9921 43.0517 11.8059C43.1914 11.6197 43.2666 11.4389 43.2773 11.2634L43.7016 11.7415C43.6766 11.8918 43.6085 12.0583 43.4975 12.241C43.3865 12.4236 43.2379 12.599 43.0517 12.7673C42.8691 12.932 42.6507 13.0699 42.3965 13.1809C42.1458 13.2883 41.8629 13.342 41.5478 13.342C41.154 13.342 40.8084 13.2651 40.5112 13.1111C40.2176 12.9571 39.9884 12.7512 39.8237 12.4934C39.6626 12.232 39.582 11.9402 39.582 11.6179C39.582 11.3064 39.6429 11.0325 39.7646 10.7961C39.8864 10.5562 40.0618 10.3575 40.291 10.2C40.5202 10.0388 40.7959 9.91707 41.1181 9.83472C41.4404 9.75236 41.8003 9.71118 42.1977 9.71118H43.3525ZM49.2311 11.6931C49.2311 11.5499 49.1988 11.4174 49.1344 11.2957C49.0735 11.1703 48.9464 11.0575 48.753 10.9573C48.5633 10.8534 48.2768 10.7639 47.8937 10.6887C47.5714 10.6207 47.2796 10.5401 47.0182 10.447C46.7604 10.3539 46.5402 10.2411 46.3575 10.1086C46.1785 9.97616 46.0406 9.82039 45.944 9.64136C45.8473 9.46232 45.7989 9.25285 45.7989 9.01294C45.7989 8.78377 45.8491 8.56714 45.9493 8.36304C46.0532 8.15894 46.1982 7.97811 46.3844 7.82056C46.5742 7.663 46.8016 7.53947 47.0665 7.44995C47.3315 7.36043 47.6269 7.31567 47.9528 7.31567C48.4182 7.31567 48.8157 7.39803 49.1451 7.56274C49.4746 7.72746 49.727 7.94767 49.9025 8.22339C50.0779 8.49552 50.1656 8.7981 50.1656 9.1311H49.172C49.172 8.96997 49.1237 8.81421 49.027 8.66382C48.9339 8.50985 48.796 8.38273 48.6134 8.28247C48.4344 8.18221 48.2141 8.13208 47.9528 8.13208C47.677 8.13208 47.4532 8.17505 47.2814 8.26099C47.1131 8.34334 46.9895 8.44897 46.9108 8.57788C46.8356 8.70679 46.798 8.84285 46.798 8.98608C46.798 9.09351 46.8159 9.19019 46.8517 9.27612C46.8911 9.35848 46.9591 9.43547 47.0558 9.50708C47.1525 9.57511 47.2885 9.63957 47.464 9.70044C47.6394 9.76131 47.8632 9.82218 48.1354 9.88306C48.6116 9.99048 49.0037 10.1194 49.3116 10.2698C49.6196 10.4202 49.8488 10.6046 49.9991 10.823C50.1495 11.0414 50.2247 11.3064 50.2247 11.6179C50.2247 11.8722 50.171 12.1049 50.0636 12.3162C49.9598 12.5274 49.8076 12.71 49.6071 12.864C49.4101 13.0144 49.1738 13.1326 48.8981 13.2185C48.6259 13.3009 48.3198 13.342 47.9796 13.342C47.4676 13.342 47.0343 13.2507 46.6798 13.0681C46.3253 12.8855 46.0568 12.6492 45.8741 12.3591C45.6915 12.0691 45.6002 11.7629 45.6002 11.4407H46.5992C46.6136 11.7128 46.6923 11.9294 46.8356 12.0906C46.9788 12.2481 47.1543 12.3609 47.3619 12.429C47.5696 12.4934 47.7755 12.5256 47.9796 12.5256C48.2517 12.5256 48.4791 12.4898 48.6617 12.4182C48.8479 12.3466 48.9894 12.2481 49.0861 12.1228C49.1827 11.9975 49.2311 11.8542 49.2311 11.6931ZM52.6389 4.98462V13.2346H51.6399V4.98462H52.6389ZM56.1892 7.4231L53.6541 10.1355L52.2361 11.6072L52.1555 10.5491L53.1707 9.33521L54.9754 7.4231H56.1892ZM55.2815 13.2346L53.2083 10.4631L53.7239 9.5769L56.4524 13.2346H55.2815Z" fill="#333333"/>
</svg>
