<svg width="90" height="100" viewBox="0 0 90 100" fill="none" xmlns="http://www.w3.org/2000/svg">
<path d="M44.9252 70C64.2139 70 79.8505 54.33 79.8505 35C79.8505 15.67 64.2139 0 44.9252 0C25.6366 0 10 15.67 10 35C10 54.33 25.6366 70 44.9252 70Z" fill="#2396E9"/>
<g filter="url(#filter0_d_5028_23003)">
<path d="M65.8202 45.3933C68.6774 39.6487 69.2697 32.5777 66.2924 25.3098C65.1698 22.5868 63.505 20.1218 61.3997 18.0654C59.2944 16.0089 56.7928 14.4042 54.0478 13.3492C34.278 5.77811 15.802 24.2629 23.3003 44.072C24.3662 46.8645 25.9947 49.407 28.0843 51.5409C30.1739 53.6748 32.6798 55.3545 35.4457 56.4751C42.9689 59.5214 50.248 58.7081 56.0578 55.5295C56.8426 55.0848 57.7545 54.919 58.6452 55.0593L63.7963 55.9481C64.0852 55.9982 64.3819 55.9808 64.663 55.8971C64.9441 55.8134 65.2022 55.6658 65.417 55.4657C65.6318 55.2656 65.7976 55.0185 65.9015 54.7436C66.0053 54.4688 66.0444 54.1736 66.0156 53.8811C65.8172 51.8817 65.5374 49.1655 65.3826 47.6323C65.3128 46.8595 65.4646 46.0827 65.8202 45.3933Z" fill="white"/>
</g>
<path d="M36.1467 34.9496C38.6644 34.9496 40.7054 32.9042 40.7054 30.381C40.7054 27.8579 38.6644 25.8125 36.1467 25.8125C33.6289 25.8125 31.5879 27.8579 31.5879 30.381C31.5879 32.9042 33.6289 34.9496 36.1467 34.9496Z" fill="#15CF68"/>
<path d="M52.9836 34.9496C55.5013 34.9496 57.5423 32.9042 57.5423 30.381C57.5423 27.8579 55.5013 25.8125 52.9836 25.8125C50.4658 25.8125 48.4248 27.8579 48.4248 30.381C48.4248 32.9042 50.4658 34.9496 52.9836 34.9496Z" fill="#15CF68"/>
<path d="M11.9398 84.4449V95.5494H8.6111V94.5052C7.87925 95.3486 6.79151 95.8601 5.30458 95.8601C2.39725 95.8612 0 93.3067 0 89.9977C0 86.6886 2.39725 84.1342 5.30352 84.1342C6.79045 84.1342 7.87819 84.6457 8.61004 85.4891V84.4449H11.9398ZM8.6111 89.9977C8.6111 88.332 7.50118 87.2879 5.9699 87.2879C4.43861 87.2879 3.3287 88.332 3.3287 89.9977C3.3287 91.6633 4.43861 92.7075 5.9699 92.7075C7.50118 92.7075 8.6111 91.6633 8.6111 89.9977Z" fill="#2396E9"/>
<path d="M25.0341 88.7315V95.5494H21.7054V89.2198C21.7054 87.8427 20.8394 87.198 19.7738 87.198C18.553 87.198 17.7103 87.9093 17.7103 89.4861V95.5494H14.3816V84.4449H17.7103V85.4891C18.3101 84.6679 19.419 84.1342 20.8838 84.1342C23.1247 84.1342 25.0341 85.7332 25.0341 88.7315Z" fill="#2396E9"/>
<path d="M37.6425 84.4418L33.847 95.2134C32.604 98.7444 30.6292 100.144 27.5223 99.9883V96.879C29.0757 96.879 29.8086 96.3907 30.2955 95.0358L25.879 84.4418H29.5404L32.0042 91.2374L34.0899 84.4418H37.6425Z" fill="#2396E9"/>
<path d="M49.8036 80V95.5465H46.4749V94.5023C45.7431 95.3457 44.6553 95.8572 43.1684 95.8572C40.2611 95.8572 37.8649 93.3028 37.8649 89.9937C37.8649 86.6847 40.2621 84.1302 43.1684 84.1302C44.6553 84.1302 45.7431 84.6418 46.4749 85.4851V80H49.8036ZM46.4749 89.9948C46.4749 88.3292 45.365 87.285 43.8337 87.285C42.3024 87.285 41.1925 88.3292 41.1925 89.9948C41.1925 91.6604 42.3024 92.7046 43.8337 92.7046C45.365 92.7046 46.4749 91.6604 46.4749 89.9948Z" fill="#00CB5B"/>
<path d="M51.6865 89.9977C51.6865 86.6886 54.3045 84.1342 57.5677 84.1342C60.8299 84.1342 63.4489 86.6886 63.4489 89.9977C63.4489 93.3067 60.8299 95.8612 57.5677 95.8612C54.3055 95.8612 51.6865 93.3067 51.6865 89.9977ZM60.1202 89.9977C60.1202 88.4208 59.0103 87.3766 57.5677 87.3766C56.1251 87.3766 55.0152 88.4208 55.0152 89.9977C55.0152 91.5745 56.1251 92.6176 57.5677 92.6176C59.0103 92.6176 60.1202 91.5745 60.1202 89.9977Z" fill="#00CB5B"/>
<path d="M75.985 88.7315V95.5494H72.6563V89.2198C72.6563 87.8427 71.7903 87.198 70.7248 87.198C69.5039 87.198 68.6612 87.9093 68.6612 89.4861V95.5494H65.3325V84.4449H68.6612V85.4891C69.2611 84.6679 70.3699 84.1342 71.8347 84.1342C74.0767 84.1342 75.985 85.7332 75.985 88.7315Z" fill="#00CB5B"/>
<path d="M83.907 92.884C84.8163 92.884 85.5935 92.5289 86.0371 92.0406L88.7005 93.573C87.6127 95.0833 85.9706 95.8612 83.8627 95.8612C80.0672 95.8612 77.7153 93.3067 77.7153 89.9977C77.7153 86.6886 80.1126 84.1342 83.6187 84.1342C86.8587 84.1342 89.2549 86.6442 89.2549 89.9977C89.2549 90.4637 89.2105 90.9076 89.1218 91.3304H81.2436C81.665 92.4845 82.6862 92.884 83.907 92.884ZM85.9484 88.8425C85.5935 87.5542 84.5945 87.0881 83.5965 87.0881C82.3314 87.0881 81.4876 87.7106 81.1771 88.8425H85.9484Z" fill="#00CB5B"/>
<defs>
<filter id="filter0_d_5028_23003" x="20.5938" y="11.6143" width="54.6686" height="54.7685" filterUnits="userSpaceOnUse" color-interpolation-filters="sRGB">
<feFlood flood-opacity="0" result="BackgroundImageFix"/>
<feColorMatrix in="SourceAlpha" type="matrix" values="0 0 0 0 0 0 0 0 0 0 0 0 0 0 0 0 0 0 127 0" result="hardAlpha"/>
<feOffset dx="3" dy="4"/>
<feGaussianBlur stdDeviation="2"/>
<feColorMatrix type="matrix" values="0 0 0 0 0 0 0 0 0 0 0 0 0 0 0 0 0 0 0.25 0"/>
<feBlend mode="normal" in2="BackgroundImageFix" result="effect1_dropShadow_5028_23003"/>
<feBlend mode="normal" in="SourceGraphic" in2="effect1_dropShadow_5028_23003" result="shape"/>
</filter>
</defs>
</svg>
