<svg width="130" height="154" viewBox="0 0 130 154" fill="none" xmlns="http://www.w3.org/2000/svg">
<g filter="url(#filter0_d_5028_23102)">
<path d="M125.451 126.291L55.4616 145.045L36.0073 137.712L5.30396 23.1252L91.6111 -0.000717747L125.451 126.291Z" fill="#5F7FCF"/>
<path d="M123.873 125.614L53.8837 144.368L34.4544 137.132L4.00452 23.4914L90.3125 0.365216L123.873 125.614Z" fill="white"/>
<path d="M53.8975 144.418L34.4611 137.13L44.7012 132.035L53.8975 144.418Z" fill="#CDD8FA"/>
<path d="M34.4536 137.129L55.46 145.045C55.46 145.045 41.0966 144.681 34.4536 137.129Z" fill="#5F7FCF"/>
<path d="M71.6262 27.7363L15.3103 42.8261L16.3881 46.8486L72.704 31.7588L71.6262 27.7363Z" fill="#CDD8FA"/>
<path d="M92.0258 22.6893L73.8669 27.555L74.6715 30.5576L92.8303 25.6919L92.0258 22.6893Z" fill="#CDD8FA"/>
<path d="M58.6732 38.3926L17.1067 49.5303L17.8253 52.212L59.3917 41.0743L58.6732 38.3926Z" fill="#CDD8FA"/>
<path d="M82.9049 37.6479L18.5439 54.8934L19.2625 57.5751L83.6235 40.3296L82.9049 37.6479Z" fill="#CDD8FA"/>
<path d="M93.6189 28.656L60.9655 37.4055L61.77 40.408L94.4235 31.6586L93.6189 28.656Z" fill="#CDD8FA"/>
<path d="M94.0174 57.6656L24.293 76.3482L25.0115 79.0299L94.7359 60.3473L94.0174 57.6656Z" fill="#CDD8FA"/>
<path d="M78.0235 67.6993L25.7302 81.7113L26.8081 85.7338L79.1014 71.7219L78.0235 67.6993Z" fill="#CDD8FA"/>
<path d="M62.3888 79.0742L27.5266 88.4155L28.2452 91.0972L63.1074 81.7559L62.3888 79.0742Z" fill="#CDD8FA"/>
<path d="M103.791 67.5773L63.5559 78.3582L64.3604 81.3607L104.595 70.5799L103.791 67.5773Z" fill="#CDD8FA"/>
<path d="M102.193 61.6104L80.6188 67.3913L81.4233 70.3938L102.998 64.613L102.193 61.6104Z" fill="#CDD8FA"/>
<path d="M70.4627 98.4693L32.9188 108.529L33.9967 112.552L71.5406 102.492L70.4627 98.4693Z" fill="#CDD8FA"/>
<path d="M109.311 88.7138L71.667 98.8004L72.4715 101.803L110.115 91.7163L109.311 88.7138Z" fill="#CDD8FA"/>
<path d="M96.3945 98.7064L34.7152 115.233L35.4338 117.915L97.1131 101.388L96.3945 98.7064Z" fill="#CDD8FA"/>
<path d="M83.0824 108.022L36.1525 120.596L37.2303 124.619L84.1602 112.044L83.0824 108.022Z" fill="#CDD8FA"/>
<path d="M104.772 102.72L85.3809 107.916L86.1854 110.919L105.576 105.723L104.772 102.72Z" fill="#CDD8FA"/>
<path d="M111.044 94.6434L98.6702 97.959L99.4747 100.962L111.849 97.6459L111.044 94.6434Z" fill="#CDD8FA"/>
<path d="M19.2349 36.0318C22.1907 35.2398 23.9434 32.1965 23.1497 29.2343C22.356 26.2722 19.3164 24.513 16.3606 25.305C13.4048 26.097 11.6521 29.1403 12.4458 32.1024C13.2395 35.0646 16.2791 36.8238 19.2349 36.0318Z" fill="#2396E9"/>
<path d="M21.4282 31.404C21.6302 30.4063 21.4306 29.2985 20.6759 28.307C20.3921 27.9358 20.0357 27.6264 19.6287 27.3977C19.2216 27.169 18.7724 27.0259 18.3084 26.9769C14.968 26.6285 12.8957 30.2197 14.8582 32.9474C15.1362 33.3315 15.4901 33.6543 15.8979 33.8955C16.3058 34.1367 16.7588 34.2912 17.2286 34.3493C18.5066 34.5073 19.5886 34.0837 20.3484 33.3581C20.4504 33.2577 20.5833 33.1949 20.7256 33.1798L21.5514 33.1045C21.5978 33.1003 21.6425 33.0855 21.6822 33.0611C21.7218 33.0367 21.7553 33.0035 21.78 32.964C21.8047 32.9245 21.8199 32.8799 21.8246 32.8335C21.8292 32.7871 21.8231 32.7403 21.8066 32.6966C21.6941 32.3984 21.5397 31.9936 21.4531 31.7651C21.4106 31.6495 21.402 31.5242 21.4282 31.404V31.404Z" fill="white"/>
<path d="M16.4477 31.0191C16.8335 30.9158 17.0623 30.5185 16.9587 30.1319C16.8551 29.7452 16.4583 29.5156 16.0725 29.619C15.6867 29.7223 15.4579 30.1196 15.5615 30.5062C15.6651 30.8929 16.0618 31.1225 16.4477 31.0191Z" fill="#15CF68"/>
<path d="M19.0354 30.3287C19.4213 30.2253 19.65 29.8281 19.5464 29.4414C19.4428 29.0548 19.0461 28.8252 18.6603 28.9286C18.2744 29.0319 18.0457 29.4292 18.1493 29.8158C18.2529 30.2025 18.6496 30.4321 19.0354 30.3287Z" fill="#15CF68"/>
</g>
<defs>
<filter id="filter0_d_5028_23102" x="0.0045166" y="-0.000717163" width="129.446" height="153.046" filterUnits="userSpaceOnUse" color-interpolation-filters="sRGB">
<feFlood flood-opacity="0" result="BackgroundImageFix"/>
<feColorMatrix in="SourceAlpha" type="matrix" values="0 0 0 0 0 0 0 0 0 0 0 0 0 0 0 0 0 0 127 0" result="hardAlpha"/>
<feOffset dy="4"/>
<feGaussianBlur stdDeviation="2"/>
<feComposite in2="hardAlpha" operator="out"/>
<feColorMatrix type="matrix" values="0 0 0 0 0 0 0 0 0 0 0 0 0 0 0 0 0 0 0.1 0"/>
<feBlend mode="normal" in2="BackgroundImageFix" result="effect1_dropShadow_5028_23102"/>
<feBlend mode="normal" in="SourceGraphic" in2="effect1_dropShadow_5028_23102" result="shape"/>
</filter>
</defs>
</svg>
