<svg width="63" height="60" viewBox="0 0 63 60" fill="none" xmlns="http://www.w3.org/2000/svg">
<circle cx="30" cy="30" r="30" fill="#EFF3FF"/>
<path d="M41.6666 36.6164C40.8862 35.4519 39.8182 33.8572 39.8182 29.3182V27.2727C39.8182 22.9573 36.9376 19.3063 33 18.1294V17.7273C33 16.2231 31.7763 15 30.2728 15C28.7693 15 27.5455 16.2231 27.5455 17.7273V18.1294C23.6081 19.3063 20.7273 22.9573 20.7273 27.2727V29.3182C20.7273 33.8572 19.6593 35.4519 18.8789 36.6164C18.4274 37.2909 18 37.9282 18 38.8636C18 41.0865 22.6339 41.8665 26.3909 42.1351C26.9177 43.8216 28.464 45 30.2727 45C32.0815 45 33.6278 43.8216 34.1546 42.1351C37.9116 41.8665 42.5455 41.0865 42.5455 38.8636C42.5455 37.9282 42.118 37.2909 41.6666 36.6164ZM28.9091 17.7273C28.9091 16.9756 29.5204 16.3637 30.2727 16.3637C31.0251 16.3637 31.6364 16.9755 31.6364 17.7273V17.8362C31.1898 17.7719 30.7369 17.7273 30.2728 17.7273C29.8087 17.7273 29.3558 17.7719 28.9092 17.8362V17.7273H28.9091ZM30.2728 43.6364C29.2537 43.6364 28.3586 43.0739 27.8936 42.2207C28.8598 42.2615 29.6987 42.2728 30.2728 42.2728C30.847 42.2728 31.6859 42.2615 32.6521 42.2207C32.1871 43.0739 31.292 43.6364 30.2728 43.6364ZM30.2728 40.9091C24.0285 40.9091 19.3637 39.8291 19.3637 38.8636C19.3637 38.3649 19.5741 38.0286 20.0122 37.3755C20.8392 36.1397 22.091 34.272 22.091 29.3182V27.2727C22.091 22.761 25.7611 19.0909 30.2728 19.0909C34.7845 19.0909 38.4546 22.761 38.4546 27.2727V29.3182C38.4546 34.272 39.7064 36.1397 40.5334 37.3755C40.9715 38.0287 41.1819 38.3649 41.1819 38.8636C41.1819 39.8292 36.517 40.9091 30.2728 40.9091Z" fill="#376AF5"/>
<circle cx="54" cy="9" r="8.5" fill="#376AF5" stroke="white"/>
<path d="M52.5412 6.5V5.252H55.0372V14H53.6572V6.5H52.5412Z" fill="white"/>
</svg>
