<svg width="98" height="46" viewBox="0 0 98 46" fill="none" xmlns="http://www.w3.org/2000/svg">
<g filter="url(#filter0_d_5161_24174)">
<rect x="5" y="2" width="88" height="36" rx="2" fill="#376AF5"/>
</g>
<path d="M41.436 15.27L37.782 25H35.934L32.266 15.27H33.974L36.858 23.362L39.756 15.27H41.436ZM43.5827 16.264C43.2934 16.264 43.0507 16.166 42.8547 15.97C42.6587 15.774 42.5607 15.5313 42.5607 15.242C42.5607 14.9527 42.6587 14.71 42.8547 14.514C43.0507 14.318 43.2934 14.22 43.5827 14.22C43.8627 14.22 44.1007 14.318 44.2967 14.514C44.4927 14.71 44.5907 14.9527 44.5907 15.242C44.5907 15.5313 44.4927 15.774 44.2967 15.97C44.1007 16.166 43.8627 16.264 43.5827 16.264ZM44.3667 17.286V25H42.7707V17.286H44.3667ZM53.5321 20.954C53.5321 21.2433 53.5134 21.5047 53.4761 21.738H47.5821C47.6288 22.354 47.8574 22.8487 48.2681 23.222C48.6788 23.5953 49.1828 23.782 49.7801 23.782C50.6388 23.782 51.2454 23.4227 51.6001 22.704H53.3221C53.0888 23.4133 52.6641 23.9967 52.0481 24.454C51.4414 24.902 50.6854 25.126 49.7801 25.126C49.0428 25.126 48.3801 24.9627 47.7921 24.636C47.2134 24.3 46.7561 23.8333 46.4201 23.236C46.0934 22.6293 45.9301 21.9293 45.9301 21.136C45.9301 20.3427 46.0888 19.6473 46.4061 19.05C46.7328 18.4433 47.1854 17.9767 47.7641 17.65C48.3521 17.3233 49.0241 17.16 49.7801 17.16C50.5081 17.16 51.1568 17.3187 51.7261 17.636C52.2954 17.9533 52.7388 18.4013 53.0561 18.98C53.3734 19.5493 53.5321 20.2073 53.5321 20.954ZM51.8661 20.45C51.8568 19.862 51.6468 19.3907 51.2361 19.036C50.8254 18.6813 50.3168 18.504 49.7101 18.504C49.1594 18.504 48.6881 18.6813 48.2961 19.036C47.9041 19.3813 47.6708 19.8527 47.5961 20.45H51.8661ZM65.4627 17.286L63.0687 25H61.3887L59.8347 19.302L58.2807 25H56.6007L54.1927 17.286H55.8167L57.4267 23.488L59.0647 17.286H60.7307L62.2987 23.46L63.8947 17.286H65.4627Z" fill="white"/>
<defs>
<filter id="filter0_d_5161_24174" x="0" y="0" width="98" height="46" filterUnits="userSpaceOnUse" color-interpolation-filters="sRGB">
<feFlood flood-opacity="0" result="BackgroundImageFix"/>
<feColorMatrix in="SourceAlpha" type="matrix" values="0 0 0 0 0 0 0 0 0 0 0 0 0 0 0 0 0 0 127 0" result="hardAlpha"/>
<feMorphology radius="1" operator="dilate" in="SourceAlpha" result="effect1_dropShadow_5161_24174"/>
<feOffset dy="3"/>
<feGaussianBlur stdDeviation="2"/>
<feComposite in2="hardAlpha" operator="out"/>
<feColorMatrix type="matrix" values="0 0 0 0 0.215686 0 0 0 0 0.415686 0 0 0 0 0.960784 0 0 0 0.1 0"/>
<feBlend mode="normal" in2="BackgroundImageFix" result="effect1_dropShadow_5161_24174"/>
<feBlend mode="normal" in="SourceGraphic" in2="effect1_dropShadow_5161_24174" result="shape"/>
</filter>
</defs>
</svg>
