<svg width="61" height="22" viewBox="0 0 61 22" fill="none" xmlns="http://www.w3.org/2000/svg">
<path d="M22.5039 10.0312V11.1973H17.9746V10.0312H22.5039ZM18.3379 6.46875V15H16.8672V6.46875H18.3379ZM23.6348 6.46875V15H22.1699V6.46875H23.6348ZM27.2993 8.66016V15H25.8814V8.66016H27.2993ZM25.7876 6.99609C25.7876 6.78125 25.8579 6.60352 25.9985 6.46289C26.1431 6.31836 26.3423 6.24609 26.5962 6.24609C26.8462 6.24609 27.0435 6.31836 27.188 6.46289C27.3325 6.60352 27.4048 6.78125 27.4048 6.99609C27.4048 7.20703 27.3325 7.38281 27.188 7.52344C27.0435 7.66406 26.8462 7.73438 26.5962 7.73438C26.3423 7.73438 26.1431 7.66406 25.9985 7.52344C25.8579 7.38281 25.7876 7.20703 25.7876 6.99609ZM33.4483 8.66016H34.7315V14.8242C34.7315 15.3945 34.6104 15.8789 34.3682 16.2773C34.126 16.6758 33.7881 16.9785 33.3545 17.1855C32.9209 17.3965 32.419 17.502 31.8486 17.502C31.6065 17.502 31.3369 17.4668 31.0401 17.3965C30.7471 17.3262 30.4619 17.2129 30.1846 17.0566C29.9111 16.9043 29.6826 16.7031 29.499 16.4531L30.1611 15.6211C30.3877 15.8906 30.6377 16.0879 30.9111 16.2129C31.1846 16.3379 31.4717 16.4004 31.7725 16.4004C32.0967 16.4004 32.3721 16.3398 32.5986 16.2188C32.8291 16.1016 33.0068 15.9277 33.1318 15.6973C33.2568 15.4668 33.3193 15.1855 33.3193 14.8535V10.0957L33.4483 8.66016ZM29.1416 11.9004V11.7773C29.1416 11.2969 29.2002 10.8594 29.3174 10.4648C29.4346 10.0664 29.6026 9.72461 29.8213 9.43945C30.0401 9.15039 30.3057 8.92969 30.6182 8.77734C30.9307 8.62109 31.2842 8.54297 31.6787 8.54297C32.0889 8.54297 32.4385 8.61719 32.7276 8.76562C33.0205 8.91406 33.2647 9.12695 33.46 9.4043C33.6553 9.67773 33.8076 10.0059 33.917 10.3887C34.0303 10.7676 34.1143 11.1895 34.169 11.6543V12.0469C34.1182 12.5 34.0322 12.9141 33.9111 13.2891C33.7901 13.6641 33.6299 13.9883 33.4307 14.2617C33.2315 14.5352 32.9854 14.7461 32.6924 14.8945C32.4033 15.043 32.0615 15.1172 31.667 15.1172C31.2803 15.1172 30.9307 15.0371 30.6182 14.877C30.3096 14.7168 30.044 14.4922 29.8213 14.2031C29.6026 13.9141 29.4346 13.5742 29.3174 13.1836C29.2002 12.7891 29.1416 12.3613 29.1416 11.9004ZM30.5537 11.7773V11.9004C30.5537 12.1895 30.5811 12.459 30.6358 12.709C30.6943 12.959 30.7822 13.1797 30.8994 13.3711C31.0205 13.5586 31.1729 13.707 31.3565 13.8164C31.544 13.9219 31.7647 13.9746 32.0186 13.9746C32.3506 13.9746 32.6221 13.9043 32.833 13.7637C33.0479 13.623 33.2119 13.4336 33.3252 13.1953C33.4424 12.9531 33.5244 12.6836 33.5713 12.3867V11.3262C33.5479 11.0957 33.499 10.8809 33.4248 10.6816C33.3545 10.4824 33.2588 10.3086 33.1377 10.1602C33.0166 10.0078 32.8643 9.89062 32.6807 9.80859C32.4971 9.72266 32.2803 9.67969 32.0303 9.67969C31.7764 9.67969 31.5557 9.73438 31.3682 9.84375C31.1807 9.95312 31.0264 10.1035 30.9053 10.2949C30.7881 10.4863 30.7002 10.709 30.6416 10.9629C30.583 11.2168 30.5537 11.4883 30.5537 11.7773ZM38.1323 6V15H36.7261V6H38.1323ZM37.8863 11.5957L37.4292 11.5898C37.4331 11.1523 37.4937 10.748 37.6109 10.377C37.732 10.0059 37.8999 9.68359 38.1148 9.41016C38.3335 9.13281 38.5952 8.91992 38.8999 8.77148C39.2046 8.61914 39.5425 8.54297 39.9136 8.54297C40.2261 8.54297 40.5073 8.58594 40.7573 8.67188C41.0113 8.75781 41.23 8.89648 41.4136 9.08789C41.5972 9.27539 41.7359 9.52148 41.8296 9.82617C41.9273 10.127 41.9761 10.4941 41.9761 10.9277V15H40.5581V10.916C40.5581 10.6113 40.5132 10.3691 40.4234 10.1895C40.3374 10.0098 40.2105 9.88086 40.0425 9.80273C39.8745 9.7207 39.6695 9.67969 39.4273 9.67969C39.1734 9.67969 38.9488 9.73047 38.7534 9.83203C38.562 9.93359 38.4019 10.0723 38.273 10.248C38.1441 10.4238 38.0464 10.627 37.98 10.8574C37.9175 11.0879 37.8863 11.334 37.8863 11.5957ZM46.7422 15.1172C46.2735 15.1172 45.8496 15.041 45.4707 14.8887C45.0957 14.7324 44.7754 14.5156 44.5098 14.2383C44.2481 13.9609 44.0469 13.6348 43.9063 13.2598C43.7657 12.8848 43.6953 12.4805 43.6953 12.0469V11.8125C43.6953 11.3164 43.7676 10.8672 43.9121 10.4648C44.0567 10.0625 44.2578 9.71875 44.5157 9.43359C44.7735 9.14453 45.0782 8.92383 45.4297 8.77148C45.7813 8.61914 46.1621 8.54297 46.5723 8.54297C47.0254 8.54297 47.4219 8.61914 47.7617 8.77148C48.1016 8.92383 48.3828 9.13867 48.6055 9.41602C48.8321 9.68945 49 10.0156 49.1094 10.3945C49.2227 10.7734 49.2793 11.1914 49.2793 11.6484V12.252H44.3809V11.2383H47.8848V11.127C47.877 10.873 47.8262 10.6348 47.7324 10.4121C47.6426 10.1895 47.5039 10.0098 47.3164 9.87305C47.1289 9.73633 46.8789 9.66797 46.5664 9.66797C46.3321 9.66797 46.1231 9.71875 45.9395 9.82031C45.7598 9.91797 45.6094 10.0605 45.4883 10.248C45.3672 10.4355 45.2735 10.6621 45.2071 10.9277C45.1446 11.1895 45.1133 11.4844 45.1133 11.8125V12.0469C45.1133 12.3242 45.1504 12.582 45.2246 12.8203C45.3028 13.0547 45.416 13.2598 45.5645 13.4355C45.7129 13.6113 45.8926 13.75 46.1035 13.8516C46.3145 13.9492 46.5547 13.998 46.8242 13.998C47.1641 13.998 47.4668 13.9297 47.7324 13.793C47.9981 13.6562 48.2285 13.4629 48.4239 13.2129L49.168 13.9336C49.0313 14.1328 48.8535 14.3242 48.6348 14.5078C48.416 14.6875 48.1485 14.834 47.8321 14.9473C47.5196 15.0605 47.1563 15.1172 46.7422 15.1172ZM54.479 13.2832C54.479 13.1426 54.4439 13.0156 54.3736 12.9023C54.3033 12.7852 54.1685 12.6797 53.9693 12.5859C53.774 12.4922 53.4849 12.4062 53.1021 12.3281C52.7661 12.2539 52.4576 12.166 52.1763 12.0645C51.899 11.959 51.6607 11.832 51.4615 11.6836C51.2622 11.5352 51.1079 11.3594 50.9986 11.1562C50.8892 10.9531 50.8345 10.7188 50.8345 10.4531C50.8345 10.1953 50.8911 9.95117 51.0044 9.7207C51.1177 9.49023 51.2798 9.28711 51.4908 9.11133C51.7017 8.93555 51.9576 8.79688 52.2583 8.69531C52.563 8.59375 52.9029 8.54297 53.2779 8.54297C53.8091 8.54297 54.2642 8.63281 54.6431 8.8125C55.0259 8.98828 55.3189 9.22852 55.522 9.5332C55.7251 9.83398 55.8267 10.1738 55.8267 10.5527H54.4146C54.4146 10.3848 54.3716 10.2285 54.2857 10.084C54.2036 9.93555 54.0786 9.81641 53.9107 9.72656C53.7427 9.63281 53.5318 9.58594 53.2779 9.58594C53.0357 9.58594 52.8345 9.625 52.6744 9.70312C52.5181 9.77734 52.4009 9.875 52.3228 9.99609C52.2486 10.1172 52.2115 10.25 52.2115 10.3945C52.2115 10.5 52.231 10.5957 52.2701 10.6816C52.313 10.7637 52.3833 10.8398 52.481 10.9102C52.5786 10.9766 52.7115 11.0391 52.8794 11.0977C53.0513 11.1562 53.2661 11.2129 53.524 11.2676C54.0083 11.3691 54.4244 11.5 54.772 11.6602C55.1236 11.8164 55.3931 12.0195 55.5806 12.2695C55.7681 12.5156 55.8619 12.8281 55.8619 13.207C55.8619 13.4883 55.8013 13.7461 55.6802 13.9805C55.563 14.2109 55.3911 14.4121 55.1646 14.584C54.938 14.752 54.6665 14.8828 54.3501 14.9766C54.0376 15.0703 53.6861 15.1172 53.2954 15.1172C52.7212 15.1172 52.2349 15.0156 51.8365 14.8125C51.438 14.6055 51.1353 14.3418 50.9283 14.0215C50.7251 13.6973 50.6236 13.3613 50.6236 13.0137H51.9888C52.0044 13.2754 52.0767 13.4844 52.2056 13.6406C52.3384 13.793 52.5025 13.9043 52.6978 13.9746C52.897 14.041 53.1021 14.0742 53.313 14.0742C53.5669 14.0742 53.7798 14.041 53.9517 13.9746C54.1236 13.9043 54.2544 13.8105 54.3443 13.6934C54.4341 13.5723 54.479 13.4355 54.479 13.2832ZM60.5459 8.66016V9.69141H56.9717V8.66016H60.5459ZM58.003 7.10742H59.4151V13.248C59.4151 13.4434 59.4424 13.5938 59.4971 13.6992C59.5557 13.8008 59.6358 13.8691 59.7373 13.9043C59.8389 13.9395 59.958 13.957 60.0948 13.957C60.1924 13.957 60.2862 13.9512 60.376 13.9395C60.4659 13.9277 60.5381 13.916 60.5928 13.9043L60.5987 14.9824C60.4815 15.0176 60.3448 15.0488 60.1885 15.0762C60.0362 15.1035 59.8604 15.1172 59.6612 15.1172C59.337 15.1172 59.0498 15.0605 58.7998 14.9473C58.5498 14.8301 58.3545 14.6406 58.2139 14.3789C58.0733 14.1172 58.003 13.7695 58.003 13.3359V7.10742Z" fill="#333333"/>
<path d="M9.72975e-07 10L0.980792 11.0575L4.86917 6.8725L4.86917 16L6.26037 16L6.26037 6.8725L10.1418 11.065L11.1295 10L5.56477 4L9.72975e-07 10Z" fill="#DE4132"/>
</svg>
