<svg width="13" height="10" viewBox="0 0 13 10" fill="none" xmlns="http://www.w3.org/2000/svg">
<path d="M6.64706 5.12941C6.96093 4.85773 7.21268 4.5217 7.38522 4.14413C7.55776 3.76657 7.64706 3.3563 7.64706 2.94118C7.64706 2.16113 7.33719 1.41303 6.78561 0.861451C6.23403 0.309873 5.48593 1.05242e-07 4.70588 1.05242e-07C3.92583 1.05242e-07 3.17773 0.309873 2.62616 0.861451C2.07458 1.41303 1.76471 2.16113 1.76471 2.94118C1.7647 3.3563 1.854 3.76657 2.02654 4.14413C2.19909 4.5217 2.45084 4.85773 2.76471 5.12941C1.94126 5.50229 1.24263 6.10443 0.752341 6.86385C0.262056 7.62327 0.000865797 8.50783 0 9.41177C0 9.56777 0.0619746 9.71739 0.17229 9.82771C0.282606 9.93803 0.432226 10 0.588235 10C0.744245 10 0.893865 9.93803 1.00418 9.82771C1.1145 9.71739 1.17647 9.56777 1.17647 9.41177C1.17647 8.47571 1.54832 7.57799 2.21021 6.91609C2.8721 6.2542 3.76982 5.88235 4.70588 5.88235C5.64194 5.88235 6.53966 6.2542 7.20155 6.91609C7.86345 7.57799 8.23529 8.47571 8.23529 9.41177C8.23529 9.56777 8.29727 9.71739 8.40758 9.82771C8.5179 9.93803 8.66752 10 8.82353 10C8.97954 10 9.12916 9.93803 9.23947 9.82771C9.34979 9.71739 9.41176 9.56777 9.41176 9.41177C9.4109 8.50783 9.14971 7.62327 8.65942 6.86385C8.16914 6.10443 7.47051 5.50229 6.64706 5.12941ZM4.70588 4.70588C4.35686 4.70588 4.01567 4.60238 3.72546 4.40848C3.43526 4.21457 3.20907 3.93896 3.07551 3.6165C2.94194 3.29404 2.90699 2.93922 2.97508 2.5969C3.04318 2.25458 3.21125 1.94014 3.45805 1.69334C3.70485 1.44654 4.01929 1.27847 4.36161 1.21038C4.70392 1.14229 5.05875 1.17723 5.38121 1.3108C5.70366 1.44437 5.97927 1.67055 6.17318 1.96076C6.36709 2.25096 6.47059 2.59215 6.47059 2.94118C6.47059 3.40921 6.28466 3.85807 5.95372 4.18901C5.62277 4.51996 5.17391 4.70588 4.70588 4.70588ZM10.4353 4.89412C10.8117 4.47019 11.0577 3.9465 11.1434 3.38608C11.2292 2.82566 11.1511 2.2524 10.9187 1.73529C10.6862 1.21819 10.3093 0.779292 9.83322 0.471425C9.35715 0.163559 8.80224 -0.000151529 8.23529 1.05242e-07C8.07928 1.05242e-07 7.92966 0.0619747 7.81935 0.17229C7.70903 0.282606 7.64706 0.432226 7.64706 0.588235C7.64706 0.744245 7.70903 0.893865 7.81935 1.00418C7.92966 1.1145 8.07928 1.17647 8.23529 1.17647C8.70332 1.17647 9.15218 1.36239 9.48313 1.69334C9.81408 2.02429 10 2.47315 10 2.94118C9.99917 3.25014 9.91723 3.55347 9.76239 3.82084C9.60754 4.0882 9.38522 4.31022 9.11765 4.46471C9.03043 4.51501 8.95759 4.58686 8.9061 4.67338C8.8546 4.75989 8.82617 4.85818 8.82353 4.95882C8.82107 5.05868 8.84408 5.15753 8.89039 5.24603C8.9367 5.33454 9.00479 5.4098 9.08823 5.46471L9.31765 5.61765L9.39412 5.65882C10.1032 5.99513 10.7014 6.52705 11.1182 7.19195C11.5351 7.85685 11.7533 8.62702 11.7471 9.41177C11.7471 9.56777 11.809 9.71739 11.9193 9.82771C12.0297 9.93803 12.1793 10 12.3353 10C12.4913 10 12.6409 9.93803 12.7512 9.82771C12.8616 9.71739 12.9235 9.56777 12.9235 9.41177C12.9283 8.50908 12.7022 7.62015 12.2667 6.82945C11.8312 6.03875 11.2008 5.37254 10.4353 4.89412Z" fill="#333333"/>
</svg>
