<svg width="36" height="36" viewBox="0 0 36 36" fill="none" xmlns="http://www.w3.org/2000/svg">
<circle cx="18" cy="18" r="18" fill="#EFF3FF"/>
<path d="M11.4 22.4H13.4V23.6C13.4 23.8209 13.5791 24 13.8 24H24.2534C24.4743 24 24.6534 23.8209 24.6534 23.6V13.2C24.6534 12.9791 24.4743 12.8 24.2534 12.8H22.2534V12.4C22.2534 12.1791 22.0743 12 21.8534 12C21.6325 12 21.4534 12.1791 21.4534 12.4V12.8H19.4267V12.4C19.4267 12.1791 19.2476 12 19.0267 12C18.8058 12 18.6267 12.1791 18.6267 12.4V12.8H16.6267V12.4C16.6267 12.1791 16.4476 12 16.2267 12C16.0058 12 15.8267 12.1791 15.8267 12.4V12.8H13.8C13.5791 12.8 13.4 12.9791 13.4 13.2V15.6C13.4 18.548 12.1748 20.8159 11.144 21.6927C11.0146 21.8005 10.9666 21.9778 11.0239 22.1362C11.0813 22.2945 11.2316 22.4 11.4 22.4ZM23.8534 23.2H14.2V22.4H21.8534C21.9469 22.4 22.0376 22.3672 22.1094 22.3073C22.5903 21.9068 23.3351 20.9532 23.8534 19.7319V23.2ZM14.2 13.6H15.8267V14C15.8267 14.2209 16.0058 14.4 16.2267 14.4C16.4476 14.4 16.6267 14.2209 16.6267 14V13.6H18.6267V14C18.6267 14.2209 18.8058 14.4 19.0267 14.4C19.2476 14.4 19.4267 14.2209 19.4267 14V13.6H21.4534V14C21.4534 14.2209 21.6325 14.4 21.8534 14.4C22.0743 14.4 22.2534 14.2209 22.2534 14V13.6H23.8534V15.2H14.2V13.6ZM14.1932 15.9997H23.8463C23.7561 18.5372 22.7822 20.5337 21.6965 21.6H12.3099C13.5401 20.0325 14.1272 17.9915 14.1932 15.9997Z" fill="#376AF5"/>
</svg>
